<svg width="140" height="40" viewBox="0 0 140 40" fill="none" xmlns="http://www.w3.org/2000/svg">
<path d="M34.1079 40H5.50128C2.47558 40 0 37.5 0 34.4444V5.55556C0 2.5 2.47558 0 5.50128 0H34.1079C37.1336 0 39.6092 2.5 39.6092 5.55556V34.4444C39.6092 37.5 37.1336 40 34.1079 40ZM20.7811 31.2361C27.9465 27.0278 30.0645 20.7639 30.5734 16.25C30.6284 15.7361 30.257 15.2639 29.7482 15.2083C29.2393 15.1528 28.7717 15.5278 28.7167 16.0417C28.2766 20.0278 26.4336 25.5139 20.3135 29.3194C16.1325 26.7222 13.4506 23.0556 12.3229 18.4167C11.6627 15.6806 11.759 13.3611 11.8553 12.3611C13.6707 11.6944 20.341 9.63889 27.9465 12.0833L19.8046 20.4306L17.3153 17.9167C16.9577 17.5417 16.3663 17.5417 15.995 17.9167C15.6236 18.2778 15.6236 18.875 15.995 19.25L19.1582 22.4444C19.337 22.625 19.5708 22.7222 19.8184 22.7222C20.0659 22.7222 20.2997 22.625 20.4785 22.4444L30.3258 12.3472C30.5458 12.125 30.6421 11.7917 30.5734 11.4861C30.5046 11.1806 30.2845 10.9167 29.9957 10.8056C24.6595 8.72222 19.6946 8.83333 16.4626 9.29167C12.9555 9.79167 10.7137 10.7778 10.6175 10.8194C10.3286 10.9444 10.1224 11.2083 10.0673 11.5278C10.0536 11.6528 9.54472 14.7778 10.4937 18.7778C11.3601 22.4722 13.6982 27.6389 19.8459 31.2361C19.9834 31.3194 20.1484 31.3611 20.3135 31.3611C20.4785 31.3611 20.6435 31.3194 20.7811 31.2361Z" fill="#4D3CFF"/>
<path d="M52.6154 30.0475H47.6092L55.2422 7.74194H61.2661L68.8854 30.0475H63.8793L58.3367 12.8392H58.1579L52.6154 30.0475ZM52.2991 21.2836H64.1268V24.9642H52.2991V21.2836Z" fill="#15182C"/>
<path d="M77.5225 36.6725C76.0234 36.6725 74.7581 36.4641 73.6991 36.0614C72.6401 35.6447 71.7874 35.0891 71.1685 34.3808C70.5359 33.6725 70.137 32.8808 69.9445 32.0058L74.1942 31.4225C74.318 31.7558 74.5243 32.0752 74.8131 32.3669C75.0882 32.6586 75.4733 32.8947 75.9271 33.0753C76.3947 33.2558 76.9586 33.3391 77.6325 33.3391C78.6365 33.3391 79.4617 33.0891 80.1081 32.603C80.7545 32.1169 81.0846 31.2975 81.0846 30.1447V27.0891H80.892C80.6857 27.5614 80.3832 27.9919 79.9843 28.4086C79.5855 28.8253 79.0628 29.1586 78.4302 29.4225C77.7975 29.6864 77.0411 29.8114 76.1609 29.8114C74.9094 29.8114 73.7816 29.5197 72.7776 28.9364C71.7599 28.353 70.9485 27.4503 70.3433 26.2419C69.7382 25.0336 69.4356 23.4919 69.4356 21.6586C69.4356 19.7558 69.7382 18.1864 70.3571 16.9086C70.976 15.6308 71.7874 14.6864 72.8051 14.0475C73.8229 13.4086 74.9506 13.103 76.1472 13.103C77.0824 13.103 77.8526 13.2558 78.4852 13.5753C79.1179 13.8947 79.613 14.2836 79.9981 14.7558C80.3832 15.228 80.6857 15.6864 80.892 16.1308H81.0708V13.3114H85.6369V30.228C85.6369 31.6586 85.293 32.853 84.6054 33.7975C83.9177 34.7419 82.955 35.478 81.7447 35.9641C80.5069 36.4225 79.0903 36.6725 77.5225 36.6725ZM77.6188 26.3253C78.3614 26.3253 78.9941 26.1447 79.503 25.7697C80.0118 25.3947 80.4107 24.853 80.6857 24.1586C80.9608 23.4503 81.0983 22.6169 81.0983 21.6308C81.0983 20.6447 80.9608 19.7975 80.6857 19.0753C80.4107 18.353 80.0118 17.7836 79.503 17.3947C78.9803 16.9919 78.3477 16.7975 77.605 16.7975C76.8486 16.7975 76.2159 17.0058 75.6933 17.4086C75.1707 17.8253 74.7856 18.3947 74.5105 19.1169C74.2492 19.8391 74.1117 20.6864 74.1117 21.6447C74.1117 22.6169 74.2492 23.4503 74.5105 24.1447C74.7856 24.853 75.1707 25.3947 75.6933 25.7697C76.2297 26.1308 76.8623 26.3253 77.6188 26.3253Z" fill="#15182C"/>
<path d="M88.6901 30.0475V13.3114H93.1461V16.228H93.3249C93.6275 15.1864 94.1363 14.3947 94.8515 13.8669C95.5667 13.3252 96.3919 13.0614 97.3133 13.0614C97.5471 13.0614 97.7947 13.0752 98.056 13.103C98.3173 13.1308 98.5511 13.1725 98.7574 13.228V17.3391C98.5374 17.2697 98.2485 17.2141 97.8635 17.1586C97.4784 17.103 97.1345 17.0752 96.8182 17.0752C96.1443 17.0752 95.5392 17.228 95.0028 17.5197C94.4664 17.8114 94.0538 18.228 93.7512 18.7419C93.4487 19.2697 93.2974 19.8669 93.2974 20.5614V30.0336H88.6901V30.0475Z" fill="#15182C"/>
<path d="M107.257 30.3669C105.552 30.3669 104.094 30.0197 102.87 29.3114C101.646 28.603 100.697 27.6169 100.036 26.3391C99.3763 25.0475 99.0462 23.5197 99.0462 21.7558C99.0462 20.0336 99.3763 18.5336 100.036 17.228C100.697 15.9225 101.632 14.9086 102.842 14.2003C104.052 13.4919 105.469 13.103 107.078 13.103C108.178 13.103 109.196 13.2836 110.131 13.6308C111.067 13.978 111.905 14.5197 112.621 15.2141C113.336 15.9225 113.886 16.8114 114.285 17.8669C114.684 18.9364 114.876 20.1864 114.876 21.5891V22.8669H100.889V19.9919H110.558C110.558 19.3253 110.42 18.728 110.131 18.2141C109.842 17.7003 109.444 17.2975 108.935 16.9919C108.426 16.7003 107.835 16.5475 107.161 16.5475C106.459 16.5475 105.84 16.7141 105.304 17.0336C104.768 17.353 104.341 17.7975 104.039 18.3391C103.736 18.8808 103.585 19.478 103.571 20.1447V22.8808C103.571 23.7141 103.722 24.4225 104.025 25.0336C104.327 25.6447 104.768 26.103 105.331 26.4364C105.895 26.7697 106.555 26.9225 107.326 26.9225C107.835 26.9225 108.302 26.853 108.728 26.7003C109.155 26.5614 109.512 26.3391 109.815 26.0475C110.118 25.7558 110.351 25.3947 110.503 24.978L114.752 25.2558C114.532 26.2836 114.092 27.1864 113.432 27.9641C112.772 28.728 111.905 29.3253 110.86 29.7558C109.843 30.1586 108.632 30.3669 107.257 30.3669Z" fill="#15182C"/>
<path d="M124.806 30.3669C123.101 30.3669 121.643 30.0197 120.419 29.3114C119.195 28.603 118.246 27.6169 117.586 26.3391C116.925 25.0475 116.595 23.5197 116.595 21.7558C116.595 20.0336 116.925 18.5336 117.586 17.228C118.246 15.9225 119.181 14.9086 120.391 14.2003C121.601 13.478 123.018 13.103 124.627 13.103C125.727 13.103 126.745 13.2836 127.68 13.6308C128.616 13.978 129.455 14.5197 130.17 15.2141C130.885 15.9225 131.435 16.8114 131.834 17.8669C132.233 18.9364 132.425 20.1864 132.425 21.5891V22.8669H118.438V19.9919H128.107C128.107 19.3253 127.969 18.728 127.68 18.2141C127.392 17.7003 126.993 17.2975 126.484 16.9919C125.975 16.7003 125.384 16.5475 124.71 16.5475C124.008 16.5475 123.389 16.7141 122.853 17.0336C122.317 17.353 121.89 17.7975 121.588 18.3391C121.285 18.8808 121.134 19.478 121.12 20.1447V22.8808C121.12 23.7141 121.271 24.4225 121.574 25.0336C121.877 25.6447 122.317 26.103 122.881 26.4364C123.444 26.7697 124.105 26.9225 124.875 26.9225C125.384 26.9225 125.851 26.853 126.278 26.7003C126.704 26.5614 127.061 26.3391 127.364 26.0475C127.667 25.7558 127.9 25.3947 128.052 24.978L132.301 25.2558C132.081 26.2836 131.641 27.1864 130.981 27.9641C130.321 28.728 129.455 29.3253 128.409 29.7558C127.392 30.1586 126.181 30.3669 124.806 30.3669Z" fill="#15182C"/>
<path d="M131.297 11.4641V10.8113H134.309V11.4641H133.182V14.5197H132.411V11.4641H131.297Z" fill="#15182C"/>
<path d="M134.722 10.8253H135.685L136.702 13.3253H136.744L137.761 10.8253H138.724V14.5336H137.968V12.1169H137.94L136.991 14.5197H136.482L135.533 12.103H135.506V14.5336H134.749V10.8253H134.722Z" fill="#15182C"/>
</svg>
