<svg width="24" height="24" viewBox="0 0 24 24" fill="none" xmlns="http://www.w3.org/2000/svg">
<path d="M14.075 11.725C15.2917 10.825 16.2417 9.8375 16.925 8.7625C17.6084 7.6875 17.95 6.61667 17.95 5.55C17.95 5.01667 17.8625 4.625 17.6875 4.375C17.5125 4.125 17.275 4 16.975 4C16.1917 4 15.5 4.6625 14.9 5.9875C14.3 7.3125 14 8.80833 14 10.475C14 10.7083 14.0042 10.9292 14.0125 11.1375C14.0209 11.3458 14.0417 11.5417 14.075 11.725ZM4.10005 16.3C3.91672 16.4833 3.68338 16.575 3.40005 16.575C3.11672 16.575 2.88338 16.4833 2.70005 16.3C2.51672 16.1167 2.42505 15.8833 2.42505 15.6C2.42505 15.3167 2.51672 15.0833 2.70005 14.9L3.60005 14L2.70005 13.1C2.51672 12.9167 2.42505 12.6833 2.42505 12.4C2.42505 12.1167 2.51672 11.8833 2.70005 11.7C2.88338 11.5167 3.11672 11.425 3.40005 11.425C3.68338 11.425 3.91672 11.5167 4.10005 11.7L5.00005 12.6L5.90005 11.7C6.08338 11.5167 6.31672 11.425 6.60005 11.425C6.88338 11.425 7.11672 11.5167 7.30005 11.7C7.48338 11.8833 7.57505 12.1167 7.57505 12.4C7.57505 12.6833 7.48338 12.9167 7.30005 13.1L6.40005 14L7.30005 14.9C7.48338 15.0833 7.57505 15.3167 7.57505 15.6C7.57505 15.8833 7.48338 16.1167 7.30005 16.3C7.11672 16.4833 6.88338 16.575 6.60005 16.575C6.31672 16.575 6.08338 16.4833 5.90005 16.3L5.00005 15.4L4.10005 16.3ZM15.45 16C14.95 16 14.4917 15.9042 14.075 15.7125C13.6584 15.5208 13.3 15.2083 13 14.775C12.7334 14.9083 12.4584 15.0417 12.175 15.175L11.325 15.575C11.0584 15.6917 10.7959 15.6958 10.5375 15.5875C10.2792 15.4792 10.1 15.2917 10 15.025C9.90005 14.7583 9.91255 14.5 10.0375 14.25C10.1625 14 10.3584 13.8167 10.625 13.7C10.9084 13.5667 11.1834 13.4375 11.45 13.3125C11.7167 13.1875 11.975 13.0583 12.225 12.925C12.1417 12.5583 12.0792 12.1583 12.0375 11.725C11.9959 11.2917 11.975 10.825 11.975 10.325C11.975 7.925 12.45 5.9375 13.4 4.3625C14.35 2.7875 15.5417 2 16.975 2C17.8417 2 18.55 2.32083 19.1 2.9625C19.65 3.60417 19.925 4.5 19.925 5.65C19.925 7.08333 19.4709 8.5 18.5625 9.9C17.6542 11.3 16.3917 12.5583 14.775 13.675C14.8917 13.7917 15.0125 13.8792 15.1375 13.9375C15.2625 13.9958 15.3917 14.025 15.525 14.025C15.875 14.025 16.2834 13.8333 16.75 13.45C17.2167 13.0667 17.6667 12.55 18.1 11.9C18.2667 11.6667 18.4792 11.5042 18.7375 11.4125C18.9959 11.3208 19.25 11.3333 19.5 11.45C19.75 11.5833 19.9334 11.7792 20.05 12.0375C20.1667 12.2958 20.2 12.5667 20.15 12.85C20.1167 13.05 20.1 13.2417 20.1 13.425C20.1 13.6083 20.125 13.7833 20.175 13.95C20.2584 13.9167 20.3542 13.8625 20.4625 13.7875C20.5709 13.7125 20.6834 13.6167 20.8 13.5C21 13.3167 21.2375 13.2125 21.5125 13.1875C21.7875 13.1625 22.0334 13.2333 22.25 13.4C22.4834 13.5833 22.6084 13.8083 22.625 14.075C22.6417 14.3417 22.5584 14.5667 22.375 14.75C21.9917 15.1333 21.5875 15.4375 21.1625 15.6625C20.7375 15.8875 20.3334 16 19.95 16C19.6 16 19.2875 15.8958 19.0125 15.6875C18.7375 15.4792 18.5084 15.1583 18.325 14.725C17.8584 15.1417 17.3834 15.4583 16.9 15.675C16.4167 15.8917 15.9334 16 15.45 16ZM4.00005 21C3.71672 21 3.47922 20.9042 3.28755 20.7125C3.09588 20.5208 3.00005 20.2833 3.00005 20C3.00005 19.7167 3.09588 19.4792 3.28755 19.2875C3.47922 19.0958 3.71672 19 4.00005 19C4.28338 19 4.52088 19.0958 4.71255 19.2875C4.90422 19.4792 5.00005 19.7167 5.00005 20C5.00005 20.2833 4.90422 20.5208 4.71255 20.7125C4.52088 20.9042 4.28338 21 4.00005 21ZM8.00005 21C7.71672 21 7.47922 20.9042 7.28755 20.7125C7.09588 20.5208 7.00005 20.2833 7.00005 20C7.00005 19.7167 7.09588 19.4792 7.28755 19.2875C7.47922 19.0958 7.71672 19 8.00005 19C8.28338 19 8.52088 19.0958 8.71255 19.2875C8.90422 19.4792 9.00005 19.7167 9.00005 20C9.00005 20.2833 8.90422 20.5208 8.71255 20.7125C8.52088 20.9042 8.28338 21 8.00005 21ZM12 21C11.7167 21 11.4792 20.9042 11.2875 20.7125C11.0959 20.5208 11 20.2833 11 20C11 19.7167 11.0959 19.4792 11.2875 19.2875C11.4792 19.0958 11.7167 19 12 19C12.2834 19 12.5209 19.0958 12.7125 19.2875C12.9042 19.4792 13 19.7167 13 20C13 20.2833 12.9042 20.5208 12.7125 20.7125C12.5209 20.9042 12.2834 21 12 21ZM16 21C15.7167 21 15.4792 20.9042 15.2875 20.7125C15.0959 20.5208 15 20.2833 15 20C15 19.7167 15.0959 19.4792 15.2875 19.2875C15.4792 19.0958 15.7167 19 16 19C16.2834 19 16.5209 19.0958 16.7125 19.2875C16.9042 19.4792 17 19.7167 17 20C17 20.2833 16.9042 20.5208 16.7125 20.7125C16.5209 20.9042 16.2834 21 16 21ZM20 21C19.7167 21 19.4792 20.9042 19.2875 20.7125C19.0959 20.5208 19 20.2833 19 20C19 19.7167 19.0959 19.4792 19.2875 19.2875C19.4792 19.0958 19.7167 19 20 19C20.2834 19 20.5209 19.0958 20.7125 19.2875C20.9042 19.4792 21 19.7167 21 20C21 20.2833 20.9042 20.5208 20.7125 20.7125C20.5209 20.9042 20.2834 21 20 21Z" fill="#15182C"/>
</svg>
