<svg width="192" height="130" viewBox="0 0 192 130" fill="none" xmlns="http://www.w3.org/2000/svg">
<g clip-path="url(#clip0_473_1208)">
<path d="M0 0H192V114C192 122.837 184.837 130 176 130H16C7.16344 130 0 122.837 0 114V0Z" fill="#F6F7FB"/>
<path d="M0 0H192V114C192 122.837 184.837 130 176 130H16C7.16344 130 0 122.837 0 114V0Z" fill="url(#paint0_linear_473_1208)"/>
<rect x="12" y="30" width="114.5" height="8" rx="4" fill="#DDDFE6"/>
<rect x="12" y="14" width="168" height="8" rx="4" fill="#DDDFE6"/>
<rect x="12" y="-2" width="168" height="8" rx="4" fill="#DDDFE6"/>
<line opacity="0.3" x1="12.25" y1="96.4113" x2="179.75" y2="96.4113" stroke="#15182C" stroke-width="0.5" stroke-linecap="round" stroke-dasharray="2 2"/>
<path opacity="0.8" d="M14.8018 101.997C14.782 101.811 14.6982 101.666 14.5504 101.563C14.4041 101.459 14.2138 101.407 13.9794 101.407C13.8146 101.407 13.6733 101.432 13.5554 101.482C13.4375 101.531 13.3473 101.599 13.2848 101.684C13.2223 101.769 13.1903 101.867 13.1889 101.976C13.1889 102.067 13.2095 102.146 13.2507 102.213C13.2933 102.279 13.3509 102.336 13.4233 102.383C13.4957 102.428 13.576 102.467 13.6641 102.498C13.7521 102.529 13.8409 102.556 13.9304 102.577L14.3395 102.679C14.5043 102.717 14.6626 102.769 14.8146 102.835C14.968 102.9 15.1051 102.982 15.2259 103.082C15.348 103.181 15.4446 103.301 15.5156 103.442C15.5866 103.583 15.6222 103.747 15.6222 103.936C15.6222 104.192 15.5568 104.417 15.4261 104.612C15.2955 104.805 15.1065 104.956 14.8594 105.065C14.6136 105.173 14.3161 105.227 13.9666 105.227C13.6271 105.227 13.3324 105.175 13.0824 105.07C12.8338 104.965 12.6392 104.811 12.4986 104.61C12.3594 104.408 12.2841 104.162 12.2727 103.872H13.0504C13.0618 104.024 13.1087 104.151 13.1911 104.252C13.2734 104.352 13.3807 104.428 13.5128 104.477C13.6463 104.527 13.7955 104.552 13.9602 104.552C14.1321 104.552 14.2827 104.526 14.4119 104.475C14.5426 104.423 14.6449 104.35 14.7188 104.258C14.7926 104.164 14.8303 104.055 14.8317 103.93C14.8303 103.816 14.7969 103.722 14.7315 103.649C14.6662 103.573 14.5746 103.511 14.4567 103.461C14.3402 103.41 14.2038 103.365 14.0476 103.325L13.5511 103.197C13.1918 103.105 12.9077 102.965 12.6989 102.777C12.4915 102.588 12.3878 102.338 12.3878 102.025C12.3878 101.768 12.4574 101.543 12.5966 101.35C12.7372 101.156 12.9283 101.007 13.1697 100.9C13.4112 100.792 13.6847 100.738 13.9901 100.738C14.2997 100.738 14.571 100.792 14.804 100.9C15.0384 101.007 15.2223 101.155 15.3558 101.345C15.4893 101.534 15.5582 101.752 15.5625 101.997H14.8018ZM17.7203 105.225C17.4007 105.225 17.1238 105.155 16.8894 105.014C16.655 104.874 16.4732 104.677 16.3439 104.424C16.2161 104.171 16.1522 103.876 16.1522 103.538C16.1522 103.2 16.2161 102.904 16.3439 102.649C16.4732 102.395 16.655 102.198 16.8894 102.057C17.1238 101.916 17.4007 101.846 17.7203 101.846C18.04 101.846 18.3169 101.916 18.5513 102.057C18.7857 102.198 18.9668 102.395 19.0946 102.649C19.2239 102.904 19.2885 103.2 19.2885 103.538C19.2885 103.876 19.2239 104.171 19.0946 104.424C18.9668 104.677 18.7857 104.874 18.5513 105.014C18.3169 105.155 18.04 105.225 17.7203 105.225ZM17.7246 104.607C17.8979 104.607 18.0428 104.56 18.1593 104.465C18.2757 104.368 18.3624 104.239 18.4192 104.077C18.4775 103.915 18.5066 103.735 18.5066 103.536C18.5066 103.335 18.4775 103.154 18.4192 102.992C18.3624 102.829 18.2757 102.699 18.1593 102.602C18.0428 102.506 17.8979 102.458 17.7246 102.458C17.5471 102.458 17.3993 102.506 17.2814 102.602C17.165 102.699 17.0776 102.829 17.0194 102.992C16.9625 103.154 16.9341 103.335 16.9341 103.536C16.9341 103.735 16.9625 103.915 17.0194 104.077C17.0776 104.239 17.165 104.368 17.2814 104.465C17.3993 104.56 17.5471 104.607 17.7246 104.607ZM19.9432 106.389V101.889H20.7017V102.43H20.7465C20.7862 102.35 20.8423 102.266 20.9148 102.176C20.9872 102.085 21.0852 102.008 21.2088 101.944C21.3324 101.879 21.4901 101.846 21.6818 101.846C21.9347 101.846 22.1626 101.911 22.3658 102.04C22.5703 102.168 22.7322 102.357 22.8516 102.609C22.9723 102.859 23.0327 103.166 23.0327 103.529C23.0327 103.889 22.9737 104.194 22.8558 104.445C22.7379 104.697 22.5774 104.889 22.3743 105.021C22.1712 105.153 21.9411 105.219 21.684 105.219C21.4965 105.219 21.3409 105.188 21.2173 105.125C21.0938 105.063 20.9943 104.987 20.919 104.899C20.8452 104.81 20.7876 104.725 20.7465 104.646H20.7145V106.389H19.9432ZM20.6996 103.525C20.6996 103.737 20.7294 103.922 20.7891 104.081C20.8501 104.24 20.9375 104.365 21.0511 104.454C21.1662 104.542 21.3054 104.586 21.4688 104.586C21.6392 104.586 21.782 104.541 21.897 104.45C22.0121 104.357 22.0987 104.232 22.157 104.073C22.2166 103.912 22.2465 103.73 22.2465 103.525C22.2465 103.322 22.2173 103.141 22.1591 102.984C22.1009 102.826 22.0142 102.703 21.8991 102.613C21.7841 102.524 21.6406 102.479 21.4688 102.479C21.304 102.479 21.1641 102.522 21.049 102.609C20.934 102.695 20.8466 102.817 20.7869 102.973C20.7287 103.129 20.6996 103.313 20.6996 103.525ZM24.4645 103.244V105.161H23.6932V100.798H24.4474V102.445H24.4858C24.5625 102.26 24.6811 102.115 24.8416 102.008C25.0036 101.9 25.2095 101.846 25.4595 101.846C25.6868 101.846 25.8849 101.894 26.054 101.989C26.223 102.084 26.3537 102.223 26.446 102.406C26.5398 102.59 26.5867 102.813 26.5867 103.078V105.161H25.8153V103.197C25.8153 102.977 25.7585 102.806 25.6449 102.683C25.5327 102.56 25.375 102.498 25.1719 102.498C25.0355 102.498 24.9134 102.528 24.8054 102.588C24.6989 102.646 24.6151 102.73 24.554 102.841C24.4943 102.952 24.4645 103.086 24.4645 103.244ZM27.3729 105.161V101.889H28.1442V105.161H27.3729ZM27.7607 101.424C27.6385 101.424 27.5334 101.384 27.4453 101.303C27.3572 101.22 27.3132 101.122 27.3132 101.007C27.3132 100.89 27.3572 100.791 27.4453 100.71C27.5334 100.628 27.6385 100.587 27.7607 100.587C27.8842 100.587 27.9893 100.628 28.076 100.71C28.1641 100.791 28.2081 100.89 28.2081 101.007C28.2081 101.122 28.1641 101.22 28.076 101.303C27.9893 101.384 27.8842 101.424 27.7607 101.424ZM29.8791 105.227C29.6717 105.227 29.4849 105.19 29.3187 105.117C29.1539 105.041 29.0233 104.931 28.9267 104.784C28.8315 104.638 28.7839 104.458 28.7839 104.243C28.7839 104.058 28.818 103.906 28.8862 103.785C28.9544 103.664 29.0474 103.568 29.1653 103.495C29.2832 103.423 29.416 103.368 29.5637 103.331C29.7129 103.293 29.867 103.265 30.0261 103.248C30.2179 103.228 30.3734 103.21 30.4927 103.195C30.612 103.178 30.6987 103.152 30.7527 103.118C30.8081 103.083 30.8358 103.028 30.8358 102.954V102.941C30.8358 102.781 30.7882 102.656 30.693 102.568C30.5978 102.48 30.4608 102.436 30.2818 102.436C30.0929 102.436 29.943 102.477 29.8322 102.56C29.7228 102.642 29.649 102.74 29.6106 102.852L28.8904 102.749C28.9473 102.551 29.041 102.384 29.1717 102.251C29.3024 102.116 29.4622 102.015 29.6511 101.948C29.84 101.88 30.0488 101.846 30.2775 101.846C30.4352 101.846 30.5922 101.865 30.7484 101.901C30.9047 101.938 31.0474 101.999 31.1767 102.085C31.3059 102.168 31.4096 102.283 31.4878 102.428C31.5673 102.573 31.6071 102.754 31.6071 102.971V105.161H30.8656V104.712H30.84C30.7931 104.803 30.7271 104.888 30.6419 104.967C30.5581 105.046 30.4522 105.109 30.3244 105.157C30.198 105.204 30.0495 105.227 29.8791 105.227ZM30.0794 104.661C30.2342 104.661 30.3684 104.63 30.4821 104.569C30.5957 104.507 30.6831 104.424 30.7441 104.322C30.8066 104.22 30.8379 104.108 30.8379 103.987V103.602C30.8137 103.622 30.7726 103.64 30.7143 103.657C30.6575 103.674 30.5936 103.689 30.5226 103.702C30.4515 103.715 30.3812 103.726 30.3116 103.736C30.242 103.746 30.1816 103.754 30.1305 103.762C30.0154 103.777 29.9125 103.803 29.8216 103.838C29.7306 103.874 29.6589 103.923 29.6064 103.987C29.5538 104.05 29.5275 104.131 29.5275 104.23C29.5275 104.372 29.5794 104.48 29.6831 104.552C29.7868 104.624 29.9189 104.661 30.0794 104.661ZM34.4654 105.161H33.6216L35.1579 100.798H36.1337L37.6721 105.161H36.8283L35.6628 101.693H35.6287L34.4654 105.161ZM34.4931 103.45H36.7942V104.085H34.4931V103.45ZM38.2127 105.161V101.889H38.9499V102.445H38.9883C39.0565 102.257 39.1694 102.111 39.3271 102.006C39.4847 101.899 39.6729 101.846 39.8917 101.846C40.1133 101.846 40.3001 101.9 40.4521 102.008C40.6055 102.115 40.7134 102.26 40.7759 102.445H40.81C40.8825 102.263 41.0046 102.118 41.1765 102.01C41.3498 101.901 41.555 101.846 41.7923 101.846C42.0934 101.846 42.3391 101.941 42.5295 102.132C42.7198 102.322 42.815 102.6 42.815 102.965V105.161H42.0416V103.084C42.0416 102.881 41.9876 102.732 41.8796 102.639C41.7717 102.543 41.6396 102.496 41.4833 102.496C41.2972 102.496 41.1516 102.554 41.0465 102.671C40.9428 102.786 40.891 102.936 40.891 103.12V105.161H40.1346V103.052C40.1346 102.883 40.0835 102.748 39.9812 102.647C39.8803 102.546 39.7482 102.496 39.5849 102.496C39.4741 102.496 39.3732 102.524 39.2823 102.581C39.1914 102.637 39.119 102.715 39.065 102.818C39.011 102.918 38.984 103.036 38.984 103.171V105.161H38.2127ZM45.025 105.225C44.7054 105.225 44.4284 105.155 44.1941 105.014C43.9597 104.874 43.7779 104.677 43.6486 104.424C43.5208 104.171 43.4569 103.876 43.4569 103.538C43.4569 103.2 43.5208 102.904 43.6486 102.649C43.7779 102.395 43.9597 102.198 44.1941 102.057C44.4284 101.916 44.7054 101.846 45.025 101.846C45.3446 101.846 45.6216 101.916 45.856 102.057C46.0904 102.198 46.2715 102.395 46.3993 102.649C46.5286 102.904 46.5932 103.2 46.5932 103.538C46.5932 103.876 46.5286 104.171 46.3993 104.424C46.2715 104.677 46.0904 104.874 45.856 105.014C45.6216 105.155 45.3446 105.225 45.025 105.225ZM45.0293 104.607C45.2026 104.607 45.3475 104.56 45.464 104.465C45.5804 104.368 45.6671 104.239 45.7239 104.077C45.7821 103.915 45.8113 103.735 45.8113 103.536C45.8113 103.335 45.7821 103.154 45.7239 102.992C45.6671 102.829 45.5804 102.699 45.464 102.602C45.3475 102.506 45.2026 102.458 45.0293 102.458C44.8517 102.458 44.704 102.506 44.5861 102.602C44.4696 102.699 44.3823 102.829 44.324 102.992C44.2672 103.154 44.2388 103.335 44.2388 103.536C44.2388 103.735 44.2672 103.915 44.324 104.077C44.3823 104.239 44.4696 104.368 44.5861 104.465C44.704 104.56 44.8517 104.607 45.0293 104.607ZM47.2479 105.161V101.889H47.9957V102.434H48.0298C48.0895 102.245 48.1918 102.1 48.3367 101.997C48.483 101.894 48.6499 101.842 48.8374 101.842C48.88 101.842 48.9276 101.844 48.9801 101.848C49.0341 101.851 49.0788 101.856 49.1144 101.863V102.573C49.0817 102.561 49.0298 102.551 48.9588 102.543C48.8892 102.533 48.8217 102.528 48.7564 102.528C48.6158 102.528 48.4894 102.558 48.3771 102.619C48.2663 102.679 48.179 102.762 48.1151 102.869C48.0511 102.975 48.0192 103.098 48.0192 103.237V105.161H47.2479ZM51.7127 103.785V101.889H52.484V105.161H51.7362V104.58H51.7021C51.6282 104.763 51.5068 104.913 51.3377 105.029C51.1701 105.146 50.9634 105.204 50.7177 105.204C50.5032 105.204 50.3136 105.156 50.1488 105.061C49.9854 104.965 49.8576 104.825 49.7653 104.641C49.6729 104.457 49.6268 104.234 49.6268 103.972V101.889H50.3981V103.853C50.3981 104.061 50.4549 104.225 50.5685 104.347C50.6822 104.47 50.8313 104.531 51.016 104.531C51.1296 104.531 51.2397 104.503 51.3462 104.448C51.4528 104.392 51.5401 104.31 51.6083 104.2C51.6779 104.09 51.7127 103.951 51.7127 103.785ZM55.8638 102.754L55.1607 102.83C55.1408 102.759 55.106 102.693 55.0563 102.63C55.008 102.568 54.9427 102.517 54.8603 102.479C54.7779 102.44 54.677 102.421 54.5577 102.421C54.3972 102.421 54.2623 102.456 54.1529 102.526C54.0449 102.595 53.9917 102.686 53.9931 102.796C53.9917 102.891 54.0265 102.969 54.0975 103.029C54.1699 103.088 54.2892 103.137 54.4554 103.176L55.0137 103.295C55.3233 103.362 55.5535 103.467 55.704 103.612C55.856 103.757 55.9327 103.947 55.9341 104.181C55.9327 104.387 55.8723 104.569 55.753 104.727C55.6351 104.883 55.4711 105.005 55.2608 105.093C55.0506 105.181 54.8091 105.225 54.5364 105.225C54.1358 105.225 53.8134 105.141 53.5691 104.974C53.3248 104.805 53.1792 104.57 53.1323 104.269L53.8844 104.196C53.9185 104.344 53.991 104.455 54.1017 104.531C54.2125 104.606 54.3567 104.644 54.5343 104.644C54.7175 104.644 54.8645 104.606 54.9753 104.531C55.0875 104.455 55.1437 104.362 55.1437 104.252C55.1437 104.158 55.1074 104.08 55.035 104.019C54.964 103.958 54.8532 103.911 54.7026 103.879L54.1444 103.762C53.8304 103.696 53.5982 103.586 53.4476 103.431C53.2971 103.275 53.2225 103.078 53.2239 102.839C53.2225 102.637 53.2772 102.463 53.388 102.315C53.5002 102.166 53.6557 102.051 53.8546 101.97C54.0549 101.887 54.2857 101.846 54.5471 101.846C54.9306 101.846 55.2324 101.928 55.4526 102.091C55.6742 102.254 55.8113 102.475 55.8638 102.754ZM57.9977 105.225C57.6781 105.225 57.4011 105.155 57.1667 105.014C56.9324 104.874 56.7505 104.677 56.6213 104.424C56.4934 104.171 56.4295 103.876 56.4295 103.538C56.4295 103.2 56.4934 102.904 56.6213 102.649C56.7505 102.395 56.9324 102.198 57.1667 102.057C57.4011 101.916 57.6781 101.846 57.9977 101.846C58.3173 101.846 58.5943 101.916 58.8287 102.057C59.063 102.198 59.2441 102.395 59.372 102.649C59.5013 102.904 59.5659 103.2 59.5659 103.538C59.5659 103.876 59.5013 104.171 59.372 104.424C59.2441 104.677 59.063 104.874 58.8287 105.014C58.5943 105.155 58.3173 105.225 57.9977 105.225ZM58.002 104.607C58.1753 104.607 58.3201 104.56 58.4366 104.465C58.5531 104.368 58.6397 104.239 58.6966 104.077C58.7548 103.915 58.7839 103.735 58.7839 103.536C58.7839 103.335 58.7548 103.154 58.6966 102.992C58.6397 102.829 58.5531 102.699 58.4366 102.602C58.3201 102.506 58.1753 102.458 58.002 102.458C57.8244 102.458 57.6767 102.506 57.5588 102.602C57.4423 102.699 57.3549 102.829 57.2967 102.992C57.2399 103.154 57.2115 103.335 57.2115 103.536C57.2115 103.735 57.2399 103.915 57.2967 104.077C57.3549 104.239 57.4423 104.368 57.5588 104.465C57.6767 104.56 57.8244 104.607 58.002 104.607ZM12.5284 112.161V107.798H15.1449V108.266H13.0568V109.741H14.9489V110.21H13.0568V112.161H12.5284ZM17.071 112.23C16.7756 112.23 16.5163 112.159 16.2933 112.019C16.0717 111.878 15.8984 111.681 15.7734 111.428C15.6499 111.176 15.5881 110.88 15.5881 110.542C15.5881 110.201 15.6499 109.904 15.7734 109.649C15.8984 109.395 16.0717 109.198 16.2933 109.057C16.5163 108.916 16.7756 108.846 17.071 108.846C17.3665 108.846 17.625 108.916 17.8466 109.057C18.0696 109.198 18.2429 109.395 18.3665 109.649C18.4915 109.904 18.554 110.201 18.554 110.542C18.554 110.88 18.4915 111.176 18.3665 111.428C18.2429 111.681 18.0696 111.878 17.8466 112.019C17.625 112.159 17.3665 112.23 17.071 112.23ZM17.071 111.778C17.2955 111.778 17.4801 111.72 17.625 111.605C17.7699 111.49 17.8771 111.339 17.9467 111.151C18.0163 110.964 18.0511 110.761 18.0511 110.542C18.0511 110.323 18.0163 110.119 17.9467 109.931C17.8771 109.742 17.7699 109.589 17.625 109.472C17.4801 109.356 17.2955 109.298 17.071 109.298C16.8466 109.298 16.6619 109.356 16.517 109.472C16.3722 109.589 16.2649 109.742 16.1953 109.931C16.1257 110.119 16.0909 110.323 16.0909 110.542C16.0909 110.761 16.1257 110.964 16.1953 111.151C16.2649 111.339 16.3722 111.49 16.517 111.605C16.6619 111.72 16.8466 111.778 17.071 111.778ZM21.3841 110.823V108.889H21.8869V112.161H21.3841V111.607H21.35C21.2733 111.774 21.1539 111.915 20.992 112.031C20.8301 112.146 20.6255 112.204 20.3784 112.204C20.1738 112.204 19.992 112.159 19.8329 112.07C19.6738 111.979 19.5488 111.842 19.4579 111.661C19.367 111.477 19.3216 111.247 19.3216 110.968V108.889H19.8244V110.934C19.8244 111.173 19.8912 111.363 20.0247 111.505C20.1596 111.647 20.3315 111.718 20.5403 111.718C20.6653 111.718 20.7924 111.686 20.9217 111.622C21.0524 111.558 21.1618 111.46 21.2498 111.328C21.3393 111.196 21.3841 111.028 21.3841 110.823ZM23.3107 110.193V112.161H22.8079V108.889H23.2937V109.4H23.3363C23.413 109.234 23.5295 109.1 23.6857 108.999C23.842 108.897 24.0437 108.846 24.2908 108.846C24.5124 108.846 24.7063 108.891 24.8725 108.982C25.0387 109.072 25.168 109.208 25.2603 109.391C25.3526 109.573 25.3988 109.803 25.3988 110.082V112.161H24.896V110.116C24.896 109.859 24.8292 109.659 24.6957 109.515C24.5621 109.37 24.3789 109.298 24.146 109.298C23.9854 109.298 23.842 109.333 23.7156 109.402C23.5906 109.472 23.4918 109.573 23.4194 109.707C23.3469 109.84 23.3107 110.002 23.3107 110.193ZM27.5534 112.23C27.2807 112.23 27.04 112.161 26.8311 112.023C26.6223 111.884 26.459 111.688 26.3411 111.435C26.2232 111.181 26.1642 110.88 26.1642 110.534C26.1642 110.19 26.2232 109.891 26.3411 109.639C26.459 109.386 26.623 109.19 26.8333 109.053C27.0435 108.915 27.2864 108.846 27.562 108.846C27.775 108.846 27.9434 108.882 28.0669 108.953C28.1919 109.022 28.2871 109.102 28.3525 109.191C28.4192 109.279 28.4711 109.352 28.508 109.409H28.5506V107.798H29.0534V112.161H28.5677V111.659H28.508C28.4711 111.718 28.4185 111.793 28.3503 111.884C28.2821 111.974 28.1848 112.054 28.0584 112.125C27.932 112.195 27.7637 112.23 27.5534 112.23ZM27.6216 111.778C27.8233 111.778 27.9938 111.725 28.133 111.62C28.2722 111.514 28.378 111.367 28.4505 111.179C28.5229 110.99 28.5591 110.772 28.5591 110.525C28.5591 110.281 28.5236 110.067 28.4526 109.884C28.3816 109.699 28.2765 109.556 28.1373 109.453C27.998 109.35 27.8262 109.298 27.6216 109.298C27.4086 109.298 27.231 109.352 27.089 109.462C26.9483 109.57 26.8425 109.717 26.7715 109.903C26.7019 110.088 26.6671 110.295 26.6671 110.525C26.6671 110.758 26.7026 110.97 26.7736 111.16C26.8461 111.349 26.9526 111.499 27.0932 111.612C27.2353 111.722 27.4114 111.778 27.6216 111.778ZM31.4164 112.23C31.101 112.23 30.829 112.16 30.6003 112.021C30.373 111.88 30.1976 111.684 30.074 111.433C29.9519 111.18 29.8908 110.886 29.8908 110.551C29.8908 110.215 29.9519 109.92 30.074 109.664C30.1976 109.407 30.3695 109.207 30.5897 109.063C30.8113 108.918 31.0698 108.846 31.3652 108.846C31.5357 108.846 31.704 108.874 31.8702 108.931C32.0364 108.988 32.1877 109.08 32.324 109.208C32.4604 109.335 32.5691 109.502 32.65 109.711C32.731 109.92 32.7715 110.177 32.7715 110.482V110.695H30.2488V110.261H32.2601C32.2601 110.076 32.2232 109.911 32.1493 109.766C32.0769 109.622 31.9732 109.507 31.8382 109.423C31.7047 109.34 31.5471 109.298 31.3652 109.298C31.165 109.298 30.9917 109.347 30.8454 109.447C30.7005 109.545 30.589 109.673 30.5108 109.83C30.4327 109.988 30.3936 110.157 30.3936 110.338V110.627C30.3936 110.874 30.4363 111.084 30.5215 111.256C30.6081 111.426 30.7282 111.556 30.8816 111.646C31.035 111.734 31.2132 111.778 31.4164 111.778C31.5485 111.778 31.6678 111.759 31.7743 111.722C31.8823 111.684 31.9753 111.627 32.0534 111.552C32.1316 111.475 32.1919 111.38 32.2346 111.266L32.7204 111.403C32.6692 111.568 32.5833 111.713 32.4625 111.838C32.3418 111.961 32.1927 112.058 32.0151 112.127C31.8375 112.195 31.638 112.23 31.4164 112.23ZM33.5364 112.161V108.889H34.0222V109.383H34.0563C34.1159 109.221 34.2239 109.09 34.3802 108.989C34.5364 108.888 34.7125 108.838 34.9086 108.838C34.9455 108.838 34.9917 108.838 35.0471 108.84C35.1025 108.841 35.1444 108.843 35.1728 108.846V109.357C35.1557 109.353 35.1167 109.347 35.0556 109.338C34.9959 109.328 34.9327 109.323 34.8659 109.323C34.7069 109.323 34.5648 109.357 34.4398 109.423C34.3162 109.489 34.2182 109.58 34.1458 109.696C34.0748 109.811 34.0392 109.943 34.0392 110.09V112.161H33.5364ZM38.6921 112.221C38.4052 112.221 38.158 112.168 37.9506 112.063C37.7433 111.958 37.5835 111.814 37.4712 111.631C37.359 111.448 37.3029 111.238 37.3029 111.002C37.3029 110.82 37.3413 110.659 37.418 110.519C37.4961 110.377 37.6033 110.245 37.7397 110.124C37.8775 110.002 38.0359 109.88 38.2148 109.758L38.8455 109.289C38.9691 109.208 39.0678 109.122 39.1417 109.029C39.217 108.937 39.2546 108.816 39.2546 108.667C39.2546 108.556 39.2056 108.449 39.1076 108.345C39.011 108.242 38.8839 108.19 38.7262 108.19C38.6154 108.19 38.5174 108.218 38.4322 108.275C38.3484 108.33 38.2823 108.401 38.234 108.488C38.1871 108.573 38.1637 108.661 38.1637 108.752C38.1637 108.855 38.1914 108.958 38.2468 109.063C38.3036 109.167 38.3754 109.274 38.462 109.383C38.5501 109.491 38.641 109.602 38.7347 109.715L40.7376 112.161H40.1325L38.4791 110.167C38.3256 109.982 38.1864 109.815 38.0614 109.664C37.9364 109.514 37.837 109.365 37.7631 109.219C37.6893 109.073 37.6523 108.914 37.6523 108.744C37.6523 108.548 37.6957 108.376 37.7823 108.228C37.8704 108.079 37.9933 107.963 38.1509 107.881C38.31 107.797 38.4961 107.755 38.7092 107.755C38.9279 107.755 39.1161 107.798 39.2738 107.883C39.4315 107.967 39.5529 108.078 39.6381 108.217C39.7234 108.355 39.766 108.505 39.766 108.667C39.766 108.876 39.7141 109.057 39.6104 109.21C39.5068 109.364 39.3654 109.507 39.1864 109.639L38.3171 110.286C38.1211 110.431 37.9883 110.572 37.9187 110.708C37.8491 110.845 37.8143 110.943 37.8143 111.002C37.8143 111.139 37.8498 111.266 37.9208 111.384C37.9918 111.502 38.092 111.597 38.2212 111.669C38.3505 111.742 38.5018 111.778 38.6751 111.778C38.8398 111.778 39.0004 111.743 39.1566 111.673C39.3129 111.602 39.4542 111.5 39.5806 111.367C39.7085 111.233 39.8093 111.073 39.8832 110.885C39.9585 110.698 39.9961 110.487 39.9961 110.252H40.4819C40.4819 110.542 40.4485 110.779 40.3818 110.962C40.315 111.145 40.2397 111.289 40.1559 111.392C40.0721 111.496 40.0046 111.573 39.9535 111.624C39.9364 111.646 39.9208 111.667 39.9066 111.688C39.8924 111.71 39.8768 111.731 39.8597 111.752C39.7191 111.91 39.5416 112.028 39.3271 112.106C39.1126 112.183 38.9009 112.221 38.6921 112.221ZM46.5613 109.161H46.0329C46.0016 109.009 45.9469 108.876 45.8688 108.761C45.7921 108.646 45.6983 108.549 45.5875 108.471C45.4782 108.391 45.3567 108.332 45.2232 108.292C45.0897 108.252 44.9505 108.232 44.8056 108.232C44.5414 108.232 44.302 108.299 44.0875 108.433C43.8745 108.566 43.7047 108.763 43.5783 109.023C43.4533 109.283 43.3908 109.602 43.3908 109.98C43.3908 110.357 43.4533 110.676 43.5783 110.936C43.7047 111.196 43.8745 111.393 44.0875 111.526C44.302 111.66 44.5414 111.727 44.8056 111.727C44.9505 111.727 45.0897 111.707 45.2232 111.667C45.3567 111.627 45.4782 111.568 45.5875 111.49C45.6983 111.411 45.7921 111.313 45.8688 111.198C45.9469 111.082 46.0016 110.948 46.0329 110.798H46.5613C46.5215 111.021 46.449 111.22 46.3439 111.396C46.2388 111.573 46.1081 111.722 45.9519 111.846C45.7956 111.968 45.6202 112.061 45.4256 112.125C45.2324 112.189 45.0258 112.221 44.8056 112.221C44.4334 112.221 44.1025 112.13 43.8127 111.948C43.5229 111.766 43.2949 111.508 43.1287 111.173C42.9625 110.838 42.8794 110.44 42.8794 109.98C42.8794 109.519 42.9625 109.122 43.1287 108.786C43.2949 108.451 43.5229 108.193 43.8127 108.011C44.1025 107.829 44.4334 107.738 44.8056 107.738C45.0258 107.738 45.2324 107.77 45.4256 107.834C45.6202 107.898 45.7956 107.992 45.9519 108.115C46.1081 108.237 46.2388 108.387 46.3439 108.563C46.449 108.737 46.5215 108.937 46.5613 109.161ZM47.4151 112.161V107.798H50.0487V108.266H47.9435V109.741H49.9123V110.21H47.9435V111.693H50.0827V112.161H47.4151ZM54.6829 109.98C54.6829 110.44 54.5998 110.838 54.4336 111.173C54.2674 111.508 54.0394 111.766 53.7496 111.948C53.4599 112.13 53.1289 112.221 52.7568 112.221C52.3846 112.221 52.0536 112.13 51.7639 111.948C51.4741 111.766 51.2461 111.508 51.0799 111.173C50.9137 110.838 50.8306 110.44 50.8306 109.98C50.8306 109.519 50.9137 109.122 51.0799 108.786C51.2461 108.451 51.4741 108.193 51.7639 108.011C52.0536 107.829 52.3846 107.738 52.7568 107.738C53.1289 107.738 53.4599 107.829 53.7496 108.011C54.0394 108.193 54.2674 108.451 54.4336 108.786C54.5998 109.122 54.6829 109.519 54.6829 109.98ZM54.1715 109.98C54.1715 109.602 54.1083 109.283 53.9819 109.023C53.8569 108.763 53.6871 108.566 53.4727 108.433C53.2596 108.299 53.021 108.232 52.7568 108.232C52.4925 108.232 52.2532 108.299 52.0387 108.433C51.8256 108.566 51.6559 108.763 51.5295 109.023C51.4045 109.283 51.342 109.602 51.342 109.98C51.342 110.357 51.4045 110.676 51.5295 110.936C51.6559 111.196 51.8256 111.393 52.0387 111.526C52.2532 111.66 52.4925 111.727 52.7568 111.727C53.021 111.727 53.2596 111.66 53.4727 111.526C53.6871 111.393 53.8569 111.196 53.9819 110.936C54.1083 110.676 54.1715 110.357 54.1715 109.98Z" fill="#15182C"/>
<g opacity="0.9">
<path d="M40.3107 74.0696C43.6416 71.7651 55.4425 59.2156 46.5746 57.0915C38.5233 55.163 10.9948 74.1675 17.9984 82.0645C21.3835 85.8815 34.2764 87.2038 36.6918 92.596C39.8572 99.6623 25.0584 107.598 19.713 108.632C-1.42208 112.723 26.7895 90.7688 34.1408 88.4138C37.0084 87.4952 41.0923 86.1053 43.3559 83.9974C45.3762 82.116 38.5509 88.9164 39.6974 91.4278C42.1781 96.8622 48.045 79.826 43.3908 83.9116C40.3072 86.6184 45.4232 87.8779 47.6319 86.5622C48.7753 85.8811 49.7835 84.1985 50.4421 83.0518C53.8871 77.0543 45.4498 96.0663 44.4042 102.903C43.3304 109.924 46.803 86.372 53.3215 83.5515C56.2834 82.27 55.1058 86.6883 54.4339 87.8196C54.2585 88.1148 49.684 93.2781 49.4932 91.4911C49.3395 90.0511 53.1391 88.8815 54.0383 88.1981C57.7719 85.3605 61.9115 79.2036 63.1754 74.6597C64.514 69.8472 58.8685 83.7303 57.5437 88.5466C57.2734 89.5289 63.3089 81.2588 63.8351 82.8108C64.506 84.7893 62.0223 86.4706 62.6083 88.326C63.0931 89.8609 68.0764 82.72 68.8556 82.0645C68.8916 82.0341 66.9635 87.174 68.2303 87.956C69.887 88.9787 75.0377 81.3064 77.3226 80.5002C79.8243 79.6176 72.3389 83.6679 72.7093 86.2947C73.9688 90.1768 77.804 80.7164 77.8734 80.6661C78.2848 80.3681 78.566 82.3585 78.5545 84.1885C78.5126 90.8543 88.3642 83.6778 90.5539 82.0645" stroke="#4D3CFF" stroke-width="2" stroke-linecap="round"/>
<path d="M70.69 78.4226C70.6873 78.4226 70.6846 78.4226 70.667 78.4564C70.6495 78.4901 70.6172 78.5577 70.584 78.6659" stroke="#4D3CFF" stroke-width="2" stroke-linecap="round"/>
<path d="M76.2656 103.064C76.326 110.373 92.7004 90.9443 94.1469 89.132C101.261 80.2186 112.007 64.5006 119.455 56.6645C119.669 56.544 119.971 59.8923 118.448 63.7862C114.626 73.5609 106.518 90.8914 109.651 102.272" stroke="#4D3CFF" stroke-width="2" stroke-linecap="round"/>
<path d="M78.3115 94.3552C78.3415 94.3502 81.1705 91.8761 87.4384 89.407C93.7062 86.9378 103.59 83.7113 112.345 82.3854C121.099 81.0595 122.626 80.83 122.626 81.3798C122.626 81.9296 121.032 82.7544 120.207 83.4141C119.382 84.0737 116.358 86.3829 118.008 86.1631C119.657 85.9433 120.835 85.0758 123.891 83.7441C126.946 82.4124 144.398 76.5417 155.999 79.4556" stroke="#4D3CFF" stroke-width="2" stroke-linecap="round"/>
</g>
</g>
<defs>
<linearGradient id="paint0_linear_473_1208" x1="96" y1="0" x2="96" y2="130" gradientUnits="userSpaceOnUse">
<stop stop-color="#4D3CFF" stop-opacity="0"/>
<stop offset="1" stop-color="#4D3CFF" stop-opacity="0.05"/>
</linearGradient>
<clipPath id="clip0_473_1208">
<path d="M0 0H192V114C192 122.837 184.837 130 176 130H16C7.16344 130 0 122.837 0 114V0Z" fill="white"/>
</clipPath>
</defs>
</svg>
