<svg width="192" height="130" viewBox="0 0 192 130" fill="none" xmlns="http://www.w3.org/2000/svg">
<g clip-path="url(#clip0_480_1481)">
<rect y="-43.2" width="192" height="52.4" rx="12.8" fill="#F6F7FB"/>
<rect y="-43.2" width="192" height="52.4" rx="12.8" fill="url(#paint0_linear_480_1481)"/>
<rect y="17.2" width="192" height="52.4" rx="12.8" fill="#F6F7FB"/>
<rect y="17.2" width="192" height="52.4" rx="12.8" fill="url(#paint1_linear_480_1481)"/>
<path d="M13.4814 39.9637V28.3273H14.2269V39.9637H13.4814ZM15.4587 32.1682C15.4223 31.8016 15.2663 31.5167 14.9905 31.3137C14.7148 31.1107 14.3405 31.0091 13.8678 31.0091C13.5466 31.0091 13.2754 31.0546 13.0542 31.1455C12.8329 31.2334 12.6632 31.3561 12.5451 31.5137C12.4299 31.6713 12.3723 31.85 12.3723 32.05C12.3663 32.2167 12.4011 32.3622 12.4769 32.4864C12.5557 32.6107 12.6632 32.7182 12.7996 32.8091C12.936 32.897 13.0935 32.9743 13.2723 33.041C13.4511 33.1046 13.642 33.1591 13.8451 33.2046L14.6814 33.4046C15.0875 33.4955 15.4602 33.6167 15.7996 33.7682C16.139 33.9197 16.4329 34.1061 16.6814 34.3273C16.9299 34.5485 17.1223 34.8091 17.2587 35.1091C17.3981 35.4091 17.4693 35.7531 17.4723 36.141C17.4693 36.7107 17.3239 37.2046 17.036 37.6228C16.7511 38.0379 16.339 38.3607 15.7996 38.591C15.2632 38.8182 14.6163 38.9319 13.8587 38.9319C13.1072 38.9319 12.4526 38.8167 11.8951 38.5864C11.3405 38.3561 10.9072 38.0152 10.5951 37.5637C10.286 37.1091 10.1239 36.547 10.1087 35.8773H12.0132C12.0345 36.1894 12.1239 36.45 12.2814 36.6591C12.442 36.8652 12.6557 37.0213 12.9223 37.1273C13.192 37.2304 13.4966 37.2819 13.836 37.2819C14.1693 37.2819 14.4587 37.2334 14.7042 37.1364C14.9526 37.0394 15.1451 36.9046 15.2814 36.7319C15.4178 36.5591 15.486 36.3607 15.486 36.1364C15.486 35.9273 15.4239 35.7516 15.2996 35.6091C15.1784 35.4667 14.9996 35.3455 14.7632 35.2455C14.5299 35.1455 14.2435 35.0546 13.9042 34.9728L12.8905 34.7182C12.1057 34.5273 11.486 34.2288 11.0314 33.8228C10.5769 33.4167 10.3511 32.8697 10.3542 32.1819C10.3511 31.6182 10.5011 31.1258 10.8042 30.7046C11.1102 30.2834 11.5299 29.9546 12.0632 29.7182C12.5966 29.4819 13.2026 29.3637 13.8814 29.3637C14.5723 29.3637 15.1754 29.4819 15.6905 29.7182C16.2087 29.9546 16.6117 30.2834 16.8996 30.7046C17.1875 31.1258 17.336 31.6137 17.3451 32.1682H15.4587ZM18.7417 38.8V37.3819L22.0553 34.3137C22.3371 34.041 22.5735 33.7955 22.7644 33.5773C22.9583 33.3591 23.1053 33.1455 23.2053 32.9364C23.3053 32.7243 23.3553 32.4955 23.3553 32.25C23.3553 31.9773 23.2932 31.7425 23.1689 31.5455C23.0447 31.3455 22.875 31.1925 22.6598 31.0864C22.4447 30.9773 22.2007 30.9228 21.928 30.9228C21.6432 30.9228 21.3947 30.9804 21.1826 31.0955C20.9704 31.2107 20.8068 31.3758 20.6917 31.591C20.5765 31.8061 20.5189 32.0622 20.5189 32.3591H18.6507C18.6507 31.75 18.7886 31.2213 19.0644 30.7728C19.3401 30.3243 19.7265 29.9773 20.2235 29.7319C20.7204 29.4864 21.2932 29.3637 21.9417 29.3637C22.6083 29.3637 23.1886 29.4819 23.6826 29.7182C24.1795 29.9516 24.5659 30.2758 24.8417 30.691C25.1174 31.1061 25.2553 31.5819 25.2553 32.1182C25.2553 32.4697 25.1856 32.8167 25.0462 33.1591C24.9098 33.5016 24.6659 33.8819 24.3144 34.3C23.9629 34.7152 23.4674 35.2137 22.828 35.7955L21.4689 37.1273V37.191H25.378V38.8H18.7417ZM28.9269 37.5273L28.8769 38.0273C28.8375 38.4273 28.7617 38.8258 28.6496 39.2228C28.5405 39.6228 28.4254 39.9849 28.3042 40.3091C28.186 40.6334 28.0905 40.8879 28.0178 41.0728H26.7632C26.8087 40.894 26.8708 40.644 26.9496 40.3228C27.0284 40.0046 27.1026 39.647 27.1723 39.25C27.242 38.8531 27.286 38.4485 27.3042 38.0364L27.3269 37.5273H28.9269ZM34.0042 38.9273C33.3617 38.9273 32.789 38.8091 32.286 38.5728C31.786 38.3364 31.389 38.0107 31.0951 37.5955C30.8011 37.1804 30.6481 36.7046 30.636 36.1682H32.5451C32.5663 36.5288 32.7178 36.8213 32.9996 37.0455C33.2814 37.2697 33.6163 37.3819 34.0042 37.3819C34.3132 37.3819 34.586 37.3137 34.8223 37.1773C35.0617 37.0379 35.2481 36.8455 35.3814 36.6C35.5178 36.3516 35.586 36.0667 35.586 35.7455C35.586 35.4182 35.5163 35.1304 35.3769 34.8819C35.2405 34.6334 35.0511 34.4394 34.8087 34.3C34.5663 34.1607 34.289 34.0894 33.9769 34.0864C33.7042 34.0864 33.439 34.1425 33.1814 34.2546C32.9269 34.3667 32.7284 34.5197 32.586 34.7137L30.836 34.4L31.2769 29.491H36.9678V31.1H32.8996L32.6587 33.4319H32.7132C32.8769 33.2016 33.1239 33.0107 33.4542 32.8591C33.7845 32.7076 34.1542 32.6319 34.5632 32.6319C35.1239 32.6319 35.6239 32.7637 36.0632 33.0273C36.5026 33.291 36.8496 33.6531 37.1042 34.1137C37.3587 34.5713 37.4845 35.0985 37.4814 35.6955C37.4845 36.3228 37.339 36.8804 37.0451 37.3682C36.7542 37.8531 36.3466 38.2349 35.8223 38.5137C35.3011 38.7894 34.6951 38.9273 34.0042 38.9273ZM42.5042 39.0046C41.7223 39.0016 41.0496 38.8091 40.486 38.4273C39.9254 38.0455 39.4935 37.4925 39.1905 36.7682C38.8905 36.044 38.742 35.1728 38.7451 34.1546C38.7451 33.1394 38.8951 32.2743 39.1951 31.5591C39.4981 30.844 39.9299 30.3 40.4905 29.9273C41.0542 29.5516 41.7254 29.3637 42.5042 29.3637C43.2829 29.3637 43.9526 29.5516 44.5132 29.9273C45.0769 30.3031 45.5102 30.8485 45.8132 31.5637C46.1163 32.2758 46.2663 33.1394 46.2632 34.1546C46.2632 35.1758 46.1117 36.0485 45.8087 36.7728C45.5087 37.497 45.0784 38.05 44.5178 38.4319C43.9572 38.8137 43.286 39.0046 42.5042 39.0046ZM42.5042 37.3728C43.0375 37.3728 43.4632 37.1046 43.7814 36.5682C44.0996 36.0319 44.2572 35.2273 44.2542 34.1546C44.2542 33.4485 44.1814 32.8607 44.036 32.391C43.8935 31.9213 43.6905 31.5682 43.4269 31.3319C43.1663 31.0955 42.8587 30.9773 42.5042 30.9773C41.9739 30.9773 41.5496 31.2425 41.2314 31.7728C40.9132 32.3031 40.7526 33.097 40.7496 34.1546C40.7496 34.8697 40.8208 35.4667 40.9632 35.9455C41.1087 36.4213 41.3132 36.7788 41.5769 37.0182C41.8405 37.2546 42.1496 37.3728 42.5042 37.3728ZM51.3167 39.0046C50.5348 39.0016 49.8621 38.8091 49.2985 38.4273C48.7379 38.0455 48.306 37.4925 48.003 36.7682C47.703 36.044 47.5545 35.1728 47.5576 34.1546C47.5576 33.1394 47.7076 32.2743 48.0076 31.5591C48.3106 30.844 48.7424 30.3 49.303 29.9273C49.8667 29.5516 50.5379 29.3637 51.3167 29.3637C52.0954 29.3637 52.7651 29.5516 53.3257 29.9273C53.8894 30.3031 54.3227 30.8485 54.6257 31.5637C54.9288 32.2758 55.0788 33.1394 55.0757 34.1546C55.0757 35.1758 54.9242 36.0485 54.6212 36.7728C54.3212 37.497 53.8909 38.05 53.3303 38.4319C52.7697 38.8137 52.0985 39.0046 51.3167 39.0046ZM51.3167 37.3728C51.85 37.3728 52.2757 37.1046 52.5939 36.5682C52.9121 36.0319 53.0697 35.2273 53.0667 34.1546C53.0667 33.4485 52.9939 32.8607 52.8485 32.391C52.706 31.9213 52.503 31.5682 52.2394 31.3319C51.9788 31.0955 51.6712 30.9773 51.3167 30.9773C50.7864 30.9773 50.3621 31.2425 50.0439 31.7728C49.7257 32.3031 49.5651 33.097 49.5621 34.1546C49.5621 34.8697 49.6333 35.4667 49.7757 35.9455C49.9212 36.4213 50.1257 36.7788 50.3894 37.0182C50.653 37.2546 50.9621 37.3728 51.3167 37.3728Z" fill="#15182C"/>
<path opacity="0.5" d="M153.888 29.6546H155.113V35.4296C155.113 35.9519 155.01 36.3987 154.803 36.7699C154.599 37.1411 154.311 37.4249 153.94 37.6211C153.569 37.8146 153.134 37.9114 152.635 37.9114C152.177 37.9114 151.764 37.8279 151.399 37.6608C151.035 37.4938 150.748 37.2512 150.535 36.933C150.326 36.6122 150.221 36.2224 150.221 35.7637H151.442C151.442 35.9891 151.494 36.184 151.597 36.3483C151.703 36.5127 151.848 36.6413 152.031 36.7341C152.217 36.8243 152.429 36.8694 152.667 36.8694C152.927 36.8694 153.147 36.815 153.328 36.7063C153.51 36.5949 153.65 36.4319 153.745 36.2171C153.841 36.0023 153.888 35.7398 153.888 35.4296V29.6546ZM157.59 37.8H156.286L159.217 29.6546H160.637L163.568 37.8H162.263L159.961 31.1341H159.897L157.59 37.8ZM157.809 34.6103H162.041V35.6444H157.809V34.6103ZM171.319 29.6546V37.8H170.189L166.049 31.8262H165.973V37.8H164.744V29.6546H165.882L170.026 35.6364H170.102V29.6546H171.319ZM178.8 37.9114C178.254 37.9114 177.766 37.8173 177.336 37.629C176.909 37.4408 176.571 37.1796 176.322 36.8455C176.076 36.5088 175.943 36.119 175.924 35.6762H177.173C177.189 35.9175 177.27 36.1269 177.416 36.3046C177.564 36.4796 177.758 36.6148 177.997 36.7103C178.235 36.8057 178.5 36.8535 178.792 36.8535C179.113 36.8535 179.397 36.7978 179.643 36.6864C179.892 36.575 180.087 36.4199 180.228 36.2211C180.368 36.0196 180.439 35.7875 180.439 35.525C180.439 35.2519 180.368 35.012 180.228 34.8052C180.09 34.5957 179.887 34.4313 179.619 34.312C179.354 34.1927 179.033 34.133 178.657 34.133H177.969V33.1307H178.657C178.959 33.1307 179.224 33.0764 179.452 32.9677C179.683 32.859 179.863 32.7078 179.993 32.5143C180.123 32.318 180.188 32.0887 180.188 31.8262C180.188 31.5743 180.131 31.3555 180.017 31.1699C179.906 30.9817 179.747 30.8345 179.54 30.7285C179.336 30.6224 179.094 30.5694 178.816 30.5694C178.551 30.5694 178.303 30.6184 178.072 30.7165C177.844 30.812 177.659 30.9499 177.515 31.1302C177.372 31.3078 177.295 31.5213 177.285 31.7705H176.095C176.109 31.3304 176.239 30.9432 176.485 30.6091C176.734 30.275 177.063 30.0139 177.472 29.8256C177.88 29.6374 178.333 29.5432 178.832 29.5432C179.354 29.5432 179.805 29.6453 180.184 29.8495C180.566 30.051 180.86 30.3201 181.067 30.6569C181.276 30.9936 181.38 31.3622 181.377 31.7625C181.38 32.2186 181.253 32.6057 180.995 32.9239C180.741 33.2421 180.401 33.4555 179.977 33.5643V33.6279C180.518 33.7101 180.937 33.9249 181.234 34.2722C181.534 34.6196 181.682 35.0504 181.68 35.5648C181.682 36.0129 181.558 36.4146 181.306 36.7699C181.056 37.1252 180.716 37.405 180.284 37.6091C179.851 37.8107 179.357 37.9114 178.8 37.9114Z" fill="#15182C"/>
<rect x="9.59961" y="47.2" width="51.8" height="12.8" rx="6.4" fill="#F2A900"/>
<path opacity="0.7" d="M16.8065 56.1V50.2819H19.1019C19.5413 50.2819 19.9163 50.3605 20.2269 50.5177C20.5394 50.673 20.7771 50.8936 20.94 51.1796C21.1048 51.4637 21.1871 51.798 21.1871 52.1824C21.1871 52.5688 21.1038 52.9012 20.9371 53.1796C20.7705 53.4561 20.529 53.6682 20.2127 53.8159C19.8983 53.9637 19.5176 54.0375 19.0707 54.0375H17.5337V53.0489H18.8718C19.1067 53.0489 19.3017 53.0167 19.457 52.9523C19.6123 52.8879 19.7279 52.7913 19.8036 52.6625C19.8813 52.5337 19.9201 52.3737 19.9201 52.1824C19.9201 51.9892 19.8813 51.8264 19.8036 51.6938C19.7279 51.5612 19.6114 51.4608 19.4542 51.3927C19.2989 51.3226 19.1029 51.2875 18.8661 51.2875H18.0366V56.1H16.8065ZM19.9485 53.4523L21.3945 56.1H20.0366L18.6218 53.4523H19.9485ZM23.9521 56.1853C23.5032 56.1853 23.1168 56.0944 22.793 55.9125C22.471 55.7288 22.2229 55.4694 22.0487 55.1341C21.8744 54.797 21.7873 54.3983 21.7873 53.9381C21.7873 53.4892 21.8744 53.0953 22.0487 52.7563C22.2229 52.4173 22.4682 52.1531 22.7844 51.9637C23.1026 51.7743 23.4757 51.6796 23.9038 51.6796C24.1916 51.6796 24.4596 51.726 24.7077 51.8188C24.9577 51.9097 25.1755 52.047 25.3612 52.2307C25.5487 52.4144 25.6945 52.6455 25.7987 52.9239C25.9028 53.2004 25.9549 53.5243 25.9549 53.8955V54.2279H22.2702V53.4779H24.8157C24.8157 53.3036 24.7778 53.1493 24.7021 53.0148C24.6263 52.8803 24.5212 52.7752 24.3867 52.6995C24.2541 52.6218 24.0998 52.583 23.9237 52.583C23.7399 52.583 23.5771 52.6256 23.435 52.7108C23.2949 52.7942 23.185 52.9069 23.1055 53.0489C23.0259 53.1891 22.9852 53.3453 22.9833 53.5177V54.2307C22.9833 54.4466 23.0231 54.6332 23.1026 54.7904C23.1841 54.9476 23.2987 55.0688 23.4464 55.154C23.5941 55.2392 23.7693 55.2819 23.9719 55.2819C24.1064 55.2819 24.2295 55.2629 24.3413 55.225C24.453 55.1872 24.5487 55.1303 24.6282 55.0546C24.7077 54.9788 24.7683 54.886 24.81 54.7762L25.9293 54.85C25.8725 55.119 25.756 55.3538 25.5799 55.5546C25.4057 55.7534 25.1803 55.9087 24.9038 56.0205C24.6291 56.1303 24.3119 56.1853 23.9521 56.1853ZM28.7163 56.1853C28.2693 56.1853 27.8848 56.0906 27.5629 55.9012C27.2428 55.7099 26.9966 55.4447 26.8242 55.1057C26.6538 54.7667 26.5685 54.3766 26.5685 53.9353C26.5685 53.4883 26.6547 53.0962 26.8271 52.7591C27.0013 52.4201 27.2485 52.1559 27.5685 51.9665C27.8886 51.7752 28.2693 51.6796 28.7106 51.6796C29.0913 51.6796 29.4246 51.7487 29.7106 51.887C29.9966 52.0252 30.2229 52.2194 30.3896 52.4694C30.5562 52.7194 30.6481 53.0129 30.6651 53.35H29.5231C29.4909 53.1322 29.4057 52.957 29.2674 52.8245C29.131 52.69 28.9521 52.6228 28.7305 52.6228C28.543 52.6228 28.3791 52.6739 28.239 52.7762C28.1007 52.8766 27.9928 53.0233 27.9151 53.2165C27.8375 53.4097 27.7987 53.6436 27.7987 53.9182C27.7987 54.1966 27.8365 54.4334 27.9123 54.6284C27.9899 54.8235 28.0988 54.9722 28.239 55.0745C28.3791 55.1767 28.543 55.2279 28.7305 55.2279C28.8687 55.2279 28.9928 55.1995 29.1026 55.1427C29.2144 55.0858 29.3062 55.0034 29.3782 54.8955C29.4521 54.7856 29.5004 54.654 29.5231 54.5006H30.6651C30.6462 54.8339 30.5553 55.1275 30.3924 55.3813C30.2314 55.6332 30.0089 55.8302 29.7248 55.9722C29.4407 56.1142 29.1045 56.1853 28.7163 56.1853ZM34.2383 54.2421V51.7364H35.4485V56.1H34.2866V55.3074H34.2411C34.1426 55.5631 33.9788 55.7686 33.7496 55.9239C33.5224 56.0792 33.2449 56.1569 32.9173 56.1569C32.6256 56.1569 32.369 56.0906 32.1474 55.958C31.9258 55.8254 31.7525 55.637 31.6275 55.3927C31.5044 55.1483 31.4419 54.8557 31.44 54.5148V51.7364H32.6502V54.2989C32.6521 54.5565 32.7212 54.7601 32.8576 54.9097C32.994 55.0593 33.1767 55.1341 33.4059 55.1341C33.5517 55.1341 33.6881 55.101 33.815 55.0347C33.9419 54.9665 34.0442 54.8661 34.1218 54.7336C34.2013 54.601 34.2402 54.4372 34.2383 54.2421ZM36.4165 56.1V51.7364H37.5898V52.4978H37.6353C37.7148 52.2269 37.8484 52.0224 38.0359 51.8841C38.2234 51.744 38.4393 51.6739 38.6836 51.6739C38.7442 51.6739 38.8095 51.6777 38.8796 51.6853C38.9497 51.6928 39.0112 51.7033 39.0643 51.7165V52.7904C39.0075 52.7733 38.9289 52.7582 38.8285 52.7449C38.7281 52.7317 38.6362 52.725 38.5529 52.725C38.3749 52.725 38.2158 52.7639 38.0756 52.8415C37.9374 52.9173 37.8275 53.0233 37.7461 53.1597C37.6665 53.2961 37.6268 53.4533 37.6268 53.6313V56.1H36.4165ZM39.69 56.1V51.7364H40.8633V52.4978H40.9087C40.9883 52.2269 41.1218 52.0224 41.3093 51.8841C41.4968 51.744 41.7127 51.6739 41.957 51.6739C42.0176 51.6739 42.083 51.6777 42.1531 51.6853C42.2231 51.6928 42.2847 51.7033 42.3377 51.7165V52.7904C42.2809 52.7733 42.2023 52.7582 42.1019 52.7449C42.0015 52.7317 41.9097 52.725 41.8263 52.725C41.6483 52.725 41.4892 52.7639 41.3491 52.8415C41.2108 52.9173 41.101 53.0233 41.0195 53.1597C40.94 53.2961 40.9002 53.4533 40.9002 53.6313V56.1H39.69ZM42.9634 56.1V51.7364H44.1737V56.1H42.9634ZM43.5714 51.1739C43.3915 51.1739 43.2371 51.1142 43.1083 50.9949C42.9814 50.8737 42.918 50.7288 42.918 50.5603C42.918 50.3936 42.9814 50.2506 43.1083 50.1313C43.2371 50.0101 43.3915 49.9495 43.5714 49.9495C43.7513 49.9495 43.9047 50.0101 44.0316 50.1313C44.1604 50.2506 44.2248 50.3936 44.2248 50.5603C44.2248 50.7288 44.1604 50.8737 44.0316 50.9949C43.9047 51.1142 43.7513 51.1739 43.5714 51.1739ZM46.3533 53.5773V56.1H45.1431V51.7364H46.2965V52.5063H46.3477C46.4442 52.2525 46.6062 52.0517 46.8335 51.904C47.0607 51.7544 47.3363 51.6796 47.6602 51.6796C47.9632 51.6796 48.2274 51.7459 48.4528 51.8784C48.6781 52.011 48.8533 52.2004 48.9783 52.4466C49.1033 52.6909 49.1658 52.9826 49.1658 53.3216V56.1H47.9556V53.5375C47.9575 53.2705 47.8893 53.0622 47.7511 52.9125C47.6128 52.761 47.4225 52.6853 47.18 52.6853C47.0172 52.6853 46.8732 52.7203 46.7482 52.7904C46.6251 52.8605 46.5285 52.9627 46.4585 53.0972C46.3903 53.2298 46.3552 53.3898 46.3533 53.5773ZM52.0856 57.8273C51.6935 57.8273 51.3574 57.7733 51.0771 57.6654C50.7987 57.5593 50.5771 57.4144 50.4123 57.2307C50.2475 57.047 50.1405 56.8406 50.0913 56.6114L51.2106 56.4608C51.2447 56.548 51.2987 56.6294 51.3725 56.7052C51.4464 56.7809 51.5439 56.8415 51.6651 56.887C51.7882 56.9343 51.9379 56.958 52.114 56.958C52.3772 56.958 52.5941 56.8936 52.7646 56.7648C52.9369 56.6379 53.0231 56.4248 53.0231 56.1256V55.3273H52.9719C52.9189 55.4485 52.8394 55.5631 52.7333 55.6711C52.6272 55.779 52.4909 55.8671 52.3242 55.9353C52.1576 56.0034 51.9587 56.0375 51.7276 56.0375C51.4 56.0375 51.1017 55.9618 50.8327 55.8103C50.5657 55.6569 50.3526 55.423 50.1935 55.1086C50.0363 54.7923 49.9577 54.3927 49.9577 53.9097C49.9577 53.4154 50.0382 53.0025 50.1992 52.6711C50.3602 52.3396 50.5742 52.0915 50.8413 51.9267C51.1102 51.762 51.4047 51.6796 51.7248 51.6796C51.9691 51.6796 52.1737 51.7212 52.3384 51.8046C52.5032 51.886 52.6358 51.9883 52.7362 52.1114C52.8384 52.2326 52.917 52.3519 52.9719 52.4694H53.0174V51.7364H54.2191V56.1427C54.2191 56.5139 54.1282 56.8245 53.9464 57.0745C53.7646 57.3245 53.5127 57.512 53.1907 57.637C52.8706 57.7639 52.5022 57.8273 52.0856 57.8273ZM52.1112 55.1284C52.3062 55.1284 52.471 55.0802 52.6055 54.9836C52.7418 54.8851 52.846 54.7449 52.918 54.5631C52.9918 54.3794 53.0288 54.1597 53.0288 53.904C53.0288 53.6483 52.9928 53.4267 52.9208 53.2392C52.8488 53.0498 52.7447 52.9031 52.6083 52.7989C52.4719 52.6947 52.3062 52.6427 52.1112 52.6427C51.9123 52.6427 51.7447 52.6966 51.6083 52.8046C51.4719 52.9106 51.3687 53.0584 51.2987 53.2478C51.2286 53.4372 51.1935 53.6559 51.1935 53.904C51.1935 54.1559 51.2286 54.3737 51.2987 54.5574C51.3706 54.7392 51.4738 54.8803 51.6083 54.9807C51.7447 55.0792 51.9123 55.1284 52.1112 55.1284Z" fill="#15182C"/>
<rect y="77.6" width="192" height="52.4" rx="12.8" fill="#F6F7FB"/>
<rect y="77.6" width="192" height="52.4" rx="12.8" fill="url(#paint2_linear_480_1481)"/>
<path d="M13.4814 100.364V88.7273H14.2269V100.364H13.4814ZM15.4587 92.5682C15.4223 92.2015 15.2663 91.9167 14.9905 91.7136C14.7148 91.5106 14.3405 91.4091 13.8678 91.4091C13.5466 91.4091 13.2754 91.4546 13.0542 91.5455C12.8329 91.6333 12.6632 91.7561 12.5451 91.9136C12.4299 92.0712 12.3723 92.25 12.3723 92.45C12.3663 92.6167 12.4011 92.7621 12.4769 92.8864C12.5557 93.0106 12.6632 93.1182 12.7996 93.2091C12.936 93.297 13.0935 93.3743 13.2723 93.4409C13.4511 93.5046 13.642 93.5591 13.8451 93.6046L14.6814 93.8046C15.0875 93.8955 15.4602 94.0167 15.7996 94.1682C16.139 94.3197 16.4329 94.5061 16.6814 94.7273C16.9299 94.9485 17.1223 95.2091 17.2587 95.5091C17.3981 95.8091 17.4693 96.153 17.4723 96.5409C17.4693 97.1106 17.3239 97.6046 17.036 98.0227C16.7511 98.4379 16.339 98.7606 15.7996 98.9909C15.2632 99.2182 14.6163 99.3318 13.8587 99.3318C13.1072 99.3318 12.4526 99.2167 11.8951 98.9864C11.3405 98.7561 10.9072 98.4152 10.5951 97.9636C10.286 97.5091 10.1239 96.947 10.1087 96.2773H12.0132C12.0345 96.5894 12.1239 96.85 12.2814 97.0591C12.442 97.2652 12.6557 97.4212 12.9223 97.5273C13.192 97.6303 13.4966 97.6818 13.836 97.6818C14.1693 97.6818 14.4587 97.6333 14.7042 97.5364C14.9526 97.4394 15.1451 97.3046 15.2814 97.1318C15.4178 96.9591 15.486 96.7606 15.486 96.5364C15.486 96.3273 15.4239 96.1515 15.2996 96.0091C15.1784 95.8667 14.9996 95.7455 14.7632 95.6455C14.5299 95.5455 14.2435 95.4546 13.9042 95.3727L12.8905 95.1182C12.1057 94.9273 11.486 94.6288 11.0314 94.2227C10.5769 93.8167 10.3511 93.2697 10.3542 92.5818C10.3511 92.0182 10.5011 91.5258 10.8042 91.1046C11.1102 90.6833 11.5299 90.3546 12.0632 90.1182C12.5966 89.8818 13.2026 89.7636 13.8814 89.7636C14.5723 89.7636 15.1754 89.8818 15.6905 90.1182C16.2087 90.3546 16.6117 90.6833 16.8996 91.1046C17.1875 91.5258 17.336 92.0136 17.3451 92.5682H15.4587ZM18.7417 99.2V97.7818L22.0553 94.7136C22.3371 94.4409 22.5735 94.1955 22.7644 93.9773C22.9583 93.7591 23.1053 93.5455 23.2053 93.3364C23.3053 93.1243 23.3553 92.8955 23.3553 92.65C23.3553 92.3773 23.2932 92.1424 23.1689 91.9455C23.0447 91.7455 22.875 91.5924 22.6598 91.4864C22.4447 91.3773 22.2007 91.3227 21.928 91.3227C21.6432 91.3227 21.3947 91.3803 21.1826 91.4955C20.9704 91.6106 20.8068 91.7758 20.6917 91.9909C20.5765 92.2061 20.5189 92.4621 20.5189 92.7591H18.6507C18.6507 92.15 18.7886 91.6212 19.0644 91.1727C19.3401 90.7243 19.7265 90.3773 20.2235 90.1318C20.7204 89.8864 21.2932 89.7636 21.9417 89.7636C22.6083 89.7636 23.1886 89.8818 23.6826 90.1182C24.1795 90.3515 24.5659 90.6758 24.8417 91.0909C25.1174 91.5061 25.2553 91.9818 25.2553 92.5182C25.2553 92.8697 25.1856 93.2167 25.0462 93.5591C24.9098 93.9015 24.6659 94.2818 24.3144 94.7C23.9629 95.1152 23.4674 95.6136 22.828 96.1955L21.4689 97.5273V97.5909H25.378V99.2H18.7417ZM28.9269 97.9273L28.8769 98.4273C28.8375 98.8273 28.7617 99.2258 28.6496 99.6227C28.5405 100.023 28.4254 100.385 28.3042 100.709C28.186 101.033 28.0905 101.288 28.0178 101.473H26.7632C26.8087 101.294 26.8708 101.044 26.9496 100.723C27.0284 100.405 27.1026 100.047 27.1723 99.65C27.242 99.253 27.286 98.8485 27.3042 98.4364L27.3269 97.9273H28.9269ZM34.0042 99.3273C33.3617 99.3273 32.789 99.2091 32.286 98.9727C31.786 98.7364 31.389 98.4106 31.0951 97.9955C30.8011 97.5803 30.6481 97.1046 30.636 96.5682H32.5451C32.5663 96.9288 32.7178 97.2212 32.9996 97.4455C33.2814 97.6697 33.6163 97.7818 34.0042 97.7818C34.3132 97.7818 34.586 97.7136 34.8223 97.5773C35.0617 97.4379 35.2481 97.2455 35.3814 97C35.5178 96.7515 35.586 96.4667 35.586 96.1455C35.586 95.8182 35.5163 95.5303 35.3769 95.2818C35.2405 95.0333 35.0511 94.8394 34.8087 94.7C34.5663 94.5606 34.289 94.4894 33.9769 94.4864C33.7042 94.4864 33.439 94.5424 33.1814 94.6546C32.9269 94.7667 32.7284 94.9197 32.586 95.1136L30.836 94.8L31.2769 89.8909H36.9678V91.5H32.8996L32.6587 93.8318H32.7132C32.8769 93.6015 33.1239 93.4106 33.4542 93.2591C33.7845 93.1076 34.1542 93.0318 34.5632 93.0318C35.1239 93.0318 35.6239 93.1636 36.0632 93.4273C36.5026 93.6909 36.8496 94.053 37.1042 94.5136C37.3587 94.9712 37.4845 95.4985 37.4814 96.0955C37.4845 96.7227 37.339 97.2803 37.0451 97.7682C36.7542 98.253 36.3466 98.6349 35.8223 98.9136C35.3011 99.1894 34.6951 99.3273 34.0042 99.3273ZM42.5042 99.4046C41.7223 99.4015 41.0496 99.2091 40.486 98.8273C39.9254 98.4455 39.4935 97.8924 39.1905 97.1682C38.8905 96.444 38.742 95.5727 38.7451 94.5546C38.7451 93.5394 38.8951 92.6743 39.1951 91.9591C39.4981 91.244 39.9299 90.7 40.4905 90.3273C41.0542 89.9515 41.7254 89.7636 42.5042 89.7636C43.2829 89.7636 43.9526 89.9515 44.5132 90.3273C45.0769 90.703 45.5102 91.2485 45.8132 91.9636C46.1163 92.6758 46.2663 93.5394 46.2632 94.5546C46.2632 95.5758 46.1117 96.4485 45.8087 97.1727C45.5087 97.897 45.0784 98.45 44.5178 98.8318C43.9572 99.2136 43.286 99.4046 42.5042 99.4046ZM42.5042 97.7727C43.0375 97.7727 43.4632 97.5046 43.7814 96.9682C44.0996 96.4318 44.2572 95.6273 44.2542 94.5546C44.2542 93.8485 44.1814 93.2606 44.036 92.7909C43.8935 92.3212 43.6905 91.9682 43.4269 91.7318C43.1663 91.4955 42.8587 91.3773 42.5042 91.3773C41.9739 91.3773 41.5496 91.6424 41.2314 92.1727C40.9132 92.703 40.7526 93.497 40.7496 94.5546C40.7496 95.2697 40.8208 95.8667 40.9632 96.3455C41.1087 96.8212 41.3132 97.1788 41.5769 97.4182C41.8405 97.6546 42.1496 97.7727 42.5042 97.7727ZM51.3167 99.4046C50.5348 99.4015 49.8621 99.2091 49.2985 98.8273C48.7379 98.4455 48.306 97.8924 48.003 97.1682C47.703 96.444 47.5545 95.5727 47.5576 94.5546C47.5576 93.5394 47.7076 92.6743 48.0076 91.9591C48.3106 91.244 48.7424 90.7 49.303 90.3273C49.8667 89.9515 50.5379 89.7636 51.3167 89.7636C52.0954 89.7636 52.7651 89.9515 53.3257 90.3273C53.8894 90.703 54.3227 91.2485 54.6257 91.9636C54.9288 92.6758 55.0788 93.5394 55.0757 94.5546C55.0757 95.5758 54.9242 96.4485 54.6212 97.1727C54.3212 97.897 53.8909 98.45 53.3303 98.8318C52.7697 99.2136 52.0985 99.4046 51.3167 99.4046ZM51.3167 97.7727C51.85 97.7727 52.2757 97.5046 52.5939 96.9682C52.9121 96.4318 53.0697 95.6273 53.0667 94.5546C53.0667 93.8485 52.9939 93.2606 52.8485 92.7909C52.706 92.3212 52.503 91.9682 52.2394 91.7318C51.9788 91.4955 51.6712 91.3773 51.3167 91.3773C50.7864 91.3773 50.3621 91.6424 50.0439 92.1727C49.7257 92.703 49.5651 93.497 49.5621 94.5546C49.5621 95.2697 49.6333 95.8667 49.7757 96.3455C49.9212 96.8212 50.1257 97.1788 50.3894 97.4182C50.653 97.6546 50.9621 97.7727 51.3167 97.7727Z" fill="#15182C"/>
<path opacity="0.5" d="M152.472 98.2V90.0546H157.524V91.1125H153.701V93.5943H157.162V94.6483H153.701V98.2H152.472ZM159.035 98.2V90.0546H164.142V91.1125H160.264V93.5943H163.875V94.6483H160.264V97.1421H164.189V98.2H159.035ZM165.783 98.2V90.0546H168.766C169.344 90.0546 169.823 90.15 170.202 90.3409C170.581 90.5292 170.865 90.7851 171.053 91.1085C171.242 91.4294 171.336 91.7913 171.336 92.1943C171.336 92.5337 171.273 92.8201 171.149 93.0534C171.024 93.2841 170.857 93.4697 170.648 93.6102C170.441 93.7481 170.213 93.8489 169.963 93.9125V93.9921C170.234 94.0053 170.498 94.0928 170.755 94.2546C171.015 94.4136 171.23 94.6404 171.399 94.9347C171.569 95.229 171.654 95.5869 171.654 96.0085C171.654 96.4248 171.556 96.7987 171.359 97.1301C171.166 97.4589 170.866 97.7201 170.461 97.9136C170.055 98.1046 169.537 98.2 168.906 98.2H165.783ZM167.012 97.146H168.786C169.375 97.146 169.796 97.032 170.051 96.804C170.306 96.576 170.433 96.2909 170.433 95.9489C170.433 95.6917 170.368 95.4557 170.238 95.2409C170.108 95.0261 169.922 94.8551 169.681 94.7279C169.442 94.6006 169.159 94.5369 168.83 94.5369H167.012V97.146ZM167.012 93.5784H168.659C168.935 93.5784 169.183 93.5254 169.403 93.4193C169.625 93.3133 169.802 93.1648 169.932 92.9739C170.064 92.7803 170.131 92.5523 170.131 92.2898C170.131 91.953 170.013 91.6707 169.777 91.4426C169.541 91.2146 169.179 91.1006 168.691 91.1006H167.012V93.5784ZM178.8 98.3114C178.254 98.3114 177.766 98.2172 177.336 98.029C176.909 97.8407 176.571 97.5796 176.322 97.2455C176.076 96.9087 175.943 96.519 175.924 96.0761H177.173C177.189 96.3174 177.27 96.5269 177.416 96.7046C177.564 96.8796 177.758 97.0148 177.997 97.1102C178.235 97.2057 178.5 97.2534 178.792 97.2534C179.113 97.2534 179.397 97.1977 179.643 97.0864C179.892 96.975 180.087 96.8199 180.228 96.621C180.368 96.4195 180.439 96.1875 180.439 95.925C180.439 95.6519 180.368 95.4119 180.228 95.2051C180.09 94.9957 179.887 94.8313 179.619 94.7119C179.354 94.5926 179.033 94.533 178.657 94.533H177.969V93.5307H178.657C178.959 93.5307 179.224 93.4763 179.452 93.3676C179.683 93.2589 179.863 93.1078 179.993 92.9142C180.123 92.718 180.188 92.4886 180.188 92.2261C180.188 91.9743 180.131 91.7555 180.017 91.5699C179.906 91.3816 179.747 91.2345 179.54 91.1284C179.336 91.0224 179.094 90.9693 178.816 90.9693C178.551 90.9693 178.303 91.0184 178.072 91.1165C177.844 91.2119 177.659 91.3498 177.515 91.5301C177.372 91.7078 177.295 91.9212 177.285 92.1705H176.095C176.109 91.7303 176.239 91.3432 176.485 91.0091C176.734 90.675 177.063 90.4138 177.472 90.2256C177.88 90.0373 178.333 89.9432 178.832 89.9432C179.354 89.9432 179.805 90.0453 180.184 90.2494C180.566 90.451 180.86 90.7201 181.067 91.0568C181.276 91.3936 181.38 91.7621 181.377 92.1625C181.38 92.6186 181.253 93.0057 180.995 93.3239C180.741 93.6421 180.401 93.8555 179.977 93.9642V94.0279C180.518 94.1101 180.937 94.3248 181.234 94.6722C181.534 95.0195 181.682 95.4504 181.68 95.9648C181.682 96.4129 181.558 96.8146 181.306 97.1699C181.056 97.5252 180.716 97.8049 180.284 98.0091C179.851 98.2106 179.357 98.3114 178.8 98.3114Z" fill="#15182C"/>
<rect x="9.59961" y="107.6" width="51.8" height="12.8" rx="6.4" fill="#F2A900"/>
<path opacity="0.7" d="M16.8065 116.5V110.682H19.1019C19.5413 110.682 19.9163 110.76 20.2269 110.918C20.5394 111.073 20.7771 111.294 20.94 111.58C21.1048 111.864 21.1871 112.198 21.1871 112.582C21.1871 112.969 21.1038 113.301 20.9371 113.58C20.7705 113.856 20.529 114.068 20.2127 114.216C19.8983 114.364 19.5176 114.438 19.0707 114.438H17.5337V113.449H18.8718C19.1067 113.449 19.3017 113.417 19.457 113.352C19.6123 113.288 19.7279 113.191 19.8036 113.062C19.8813 112.934 19.9201 112.774 19.9201 112.582C19.9201 112.389 19.8813 112.226 19.8036 112.094C19.7279 111.961 19.6114 111.861 19.4542 111.793C19.2989 111.723 19.1029 111.688 18.8661 111.688H18.0366V116.5H16.8065ZM19.9485 113.852L21.3945 116.5H20.0366L18.6218 113.852H19.9485ZM23.9521 116.585C23.5032 116.585 23.1168 116.494 22.793 116.312C22.471 116.129 22.2229 115.869 22.0487 115.534C21.8744 115.197 21.7873 114.798 21.7873 114.338C21.7873 113.889 21.8744 113.495 22.0487 113.156C22.2229 112.817 22.4682 112.553 22.7844 112.364C23.1026 112.174 23.4757 112.08 23.9038 112.08C24.1916 112.08 24.4596 112.126 24.7077 112.219C24.9577 112.31 25.1755 112.447 25.3612 112.631C25.5487 112.814 25.6945 113.045 25.7987 113.324C25.9028 113.6 25.9549 113.924 25.9549 114.295V114.628H22.2702V113.878H24.8157C24.8157 113.704 24.7778 113.549 24.7021 113.415C24.6263 113.28 24.5212 113.175 24.3867 113.099C24.2541 113.022 24.0998 112.983 23.9237 112.983C23.7399 112.983 23.5771 113.026 23.435 113.111C23.2949 113.194 23.185 113.307 23.1055 113.449C23.0259 113.589 22.9852 113.745 22.9833 113.918V114.631C22.9833 114.847 23.0231 115.033 23.1026 115.19C23.1841 115.348 23.2987 115.469 23.4464 115.554C23.5941 115.639 23.7693 115.682 23.9719 115.682C24.1064 115.682 24.2295 115.663 24.3413 115.625C24.453 115.587 24.5487 115.53 24.6282 115.455C24.7077 115.379 24.7683 115.286 24.81 115.176L25.9293 115.25C25.8725 115.519 25.756 115.754 25.5799 115.955C25.4057 116.153 25.1803 116.309 24.9038 116.42C24.6291 116.53 24.3119 116.585 23.9521 116.585ZM28.7163 116.585C28.2693 116.585 27.8848 116.491 27.5629 116.301C27.2428 116.11 26.9966 115.845 26.8242 115.506C26.6538 115.167 26.5685 114.777 26.5685 114.335C26.5685 113.888 26.6547 113.496 26.8271 113.159C27.0013 112.82 27.2485 112.556 27.5685 112.366C27.8886 112.175 28.2693 112.08 28.7106 112.08C29.0913 112.08 29.4246 112.149 29.7106 112.287C29.9966 112.425 30.2229 112.619 30.3896 112.869C30.5562 113.119 30.6481 113.413 30.6651 113.75H29.5231C29.4909 113.532 29.4057 113.357 29.2674 113.224C29.131 113.09 28.9521 113.023 28.7305 113.023C28.543 113.023 28.3791 113.074 28.239 113.176C28.1007 113.277 27.9928 113.423 27.9151 113.616C27.8375 113.81 27.7987 114.044 27.7987 114.318C27.7987 114.597 27.8365 114.833 27.9123 115.028C27.9899 115.223 28.0988 115.372 28.239 115.474C28.3791 115.577 28.543 115.628 28.7305 115.628C28.8687 115.628 28.9928 115.599 29.1026 115.543C29.2144 115.486 29.3062 115.403 29.3782 115.295C29.4521 115.186 29.5004 115.054 29.5231 114.901H30.6651C30.6462 115.234 30.5553 115.527 30.3924 115.781C30.2314 116.033 30.0089 116.23 29.7248 116.372C29.4407 116.514 29.1045 116.585 28.7163 116.585ZM34.2383 114.642V112.136H35.4485V116.5H34.2866V115.707H34.2411C34.1426 115.963 33.9788 116.169 33.7496 116.324C33.5224 116.479 33.2449 116.557 32.9173 116.557C32.6256 116.557 32.369 116.491 32.1474 116.358C31.9258 116.225 31.7525 116.037 31.6275 115.793C31.5044 115.548 31.4419 115.256 31.44 114.915V112.136H32.6502V114.699C32.6521 114.956 32.7212 115.16 32.8576 115.31C32.994 115.459 33.1767 115.534 33.4059 115.534C33.5517 115.534 33.6881 115.501 33.815 115.435C33.9419 115.366 34.0442 115.266 34.1218 115.134C34.2013 115.001 34.2402 114.837 34.2383 114.642ZM36.4165 116.5V112.136H37.5898V112.898H37.6353C37.7148 112.627 37.8484 112.422 38.0359 112.284C38.2234 112.144 38.4393 112.074 38.6836 112.074C38.7442 112.074 38.8095 112.078 38.8796 112.085C38.9497 112.093 39.0112 112.103 39.0643 112.116V113.19C39.0075 113.173 38.9289 113.158 38.8285 113.145C38.7281 113.132 38.6362 113.125 38.5529 113.125C38.3749 113.125 38.2158 113.164 38.0756 113.241C37.9374 113.317 37.8275 113.423 37.7461 113.56C37.6665 113.696 37.6268 113.853 37.6268 114.031V116.5H36.4165ZM39.69 116.5V112.136H40.8633V112.898H40.9087C40.9883 112.627 41.1218 112.422 41.3093 112.284C41.4968 112.144 41.7127 112.074 41.957 112.074C42.0176 112.074 42.083 112.078 42.1531 112.085C42.2231 112.093 42.2847 112.103 42.3377 112.116V113.19C42.2809 113.173 42.2023 113.158 42.1019 113.145C42.0015 113.132 41.9097 113.125 41.8263 113.125C41.6483 113.125 41.4892 113.164 41.3491 113.241C41.2108 113.317 41.101 113.423 41.0195 113.56C40.94 113.696 40.9002 113.853 40.9002 114.031V116.5H39.69ZM42.9634 116.5V112.136H44.1737V116.5H42.9634ZM43.5714 111.574C43.3915 111.574 43.2371 111.514 43.1083 111.395C42.9814 111.274 42.918 111.129 42.918 110.96C42.918 110.794 42.9814 110.651 43.1083 110.531C43.2371 110.41 43.3915 110.349 43.5714 110.349C43.7513 110.349 43.9047 110.41 44.0316 110.531C44.1604 110.651 44.2248 110.794 44.2248 110.96C44.2248 111.129 44.1604 111.274 44.0316 111.395C43.9047 111.514 43.7513 111.574 43.5714 111.574ZM46.3533 113.977V116.5H45.1431V112.136H46.2965V112.906H46.3477C46.4442 112.652 46.6062 112.452 46.8335 112.304C47.0607 112.154 47.3363 112.08 47.6602 112.08C47.9632 112.08 48.2274 112.146 48.4528 112.278C48.6781 112.411 48.8533 112.6 48.9783 112.847C49.1033 113.091 49.1658 113.383 49.1658 113.722V116.5H47.9556V113.938C47.9575 113.67 47.8893 113.462 47.7511 113.312C47.6128 113.161 47.4225 113.085 47.18 113.085C47.0172 113.085 46.8732 113.12 46.7482 113.19C46.6251 113.26 46.5285 113.363 46.4585 113.497C46.3903 113.63 46.3552 113.79 46.3533 113.977ZM52.0856 118.227C51.6935 118.227 51.3574 118.173 51.0771 118.065C50.7987 117.959 50.5771 117.814 50.4123 117.631C50.2475 117.447 50.1405 117.241 50.0913 117.011L51.2106 116.861C51.2447 116.948 51.2987 117.029 51.3725 117.105C51.4464 117.181 51.5439 117.241 51.6651 117.287C51.7882 117.334 51.9379 117.358 52.114 117.358C52.3772 117.358 52.5941 117.294 52.7646 117.165C52.9369 117.038 53.0231 116.825 53.0231 116.526V115.727H52.9719C52.9189 115.848 52.8394 115.963 52.7333 116.071C52.6272 116.179 52.4909 116.267 52.3242 116.335C52.1576 116.403 51.9587 116.438 51.7276 116.438C51.4 116.438 51.1017 116.362 50.8327 116.21C50.5657 116.057 50.3526 115.823 50.1935 115.509C50.0363 115.192 49.9577 114.793 49.9577 114.31C49.9577 113.815 50.0382 113.402 50.1992 113.071C50.3602 112.74 50.5742 112.491 50.8413 112.327C51.1102 112.162 51.4047 112.08 51.7248 112.08C51.9691 112.08 52.1737 112.121 52.3384 112.205C52.5032 112.286 52.6358 112.388 52.7362 112.511C52.8384 112.633 52.917 112.752 52.9719 112.869H53.0174V112.136H54.2191V116.543C54.2191 116.914 54.1282 117.224 53.9464 117.474C53.7646 117.724 53.5127 117.912 53.1907 118.037C52.8706 118.164 52.5022 118.227 52.0856 118.227ZM52.1112 115.528C52.3062 115.528 52.471 115.48 52.6055 115.384C52.7418 115.285 52.846 115.145 52.918 114.963C52.9918 114.779 53.0288 114.56 53.0288 114.304C53.0288 114.048 52.9928 113.827 52.9208 113.639C52.8488 113.45 52.7447 113.303 52.6083 113.199C52.4719 113.095 52.3062 113.043 52.1112 113.043C51.9123 113.043 51.7447 113.097 51.6083 113.205C51.4719 113.311 51.3687 113.458 51.2987 113.648C51.2286 113.837 51.1935 114.056 51.1935 114.304C51.1935 114.556 51.2286 114.774 51.2987 114.957C51.3706 115.139 51.4738 115.28 51.6083 115.381C51.7447 115.479 51.9123 115.528 52.1112 115.528Z" fill="#15182C"/>
</g>
<defs>
<linearGradient id="paint0_linear_480_1481" x1="96" y1="-43.2" x2="96" y2="9.19999" gradientUnits="userSpaceOnUse">
<stop stop-color="#F434AC" stop-opacity="0"/>
<stop offset="1" stop-color="#F434AC" stop-opacity="0.05"/>
</linearGradient>
<linearGradient id="paint1_linear_480_1481" x1="96" y1="17.2" x2="96" y2="69.6" gradientUnits="userSpaceOnUse">
<stop stop-color="#F434AC" stop-opacity="0"/>
<stop offset="1" stop-color="#F434AC" stop-opacity="0.05"/>
</linearGradient>
<linearGradient id="paint2_linear_480_1481" x1="96" y1="77.6" x2="96" y2="130" gradientUnits="userSpaceOnUse">
<stop stop-color="#F434AC" stop-opacity="0"/>
<stop offset="1" stop-color="#F434AC" stop-opacity="0.05"/>
</linearGradient>
<clipPath id="clip0_480_1481">
<rect width="192" height="130" fill="white"/>
</clipPath>
</defs>
</svg>
