<svg width="176" height="50" viewBox="0 0 176 50" fill="none" xmlns="http://www.w3.org/2000/svg">
<path d="M42.6349 50H6.8766C3.09447 50 0 46.875 0 43.0556V6.94444C0 3.125 3.09447 0 6.8766 0H42.6349C46.417 0 49.5115 3.125 49.5115 6.94444V43.0556C49.5115 46.875 46.417 50 42.6349 50ZM25.9763 39.0451C34.9331 33.7847 37.5806 25.9549 38.2167 20.3125C38.2855 19.6701 37.8213 19.0799 37.1852 19.0104C36.5491 18.941 35.9646 19.4097 35.8958 20.0521C35.3457 25.0347 33.0421 31.8924 25.3918 36.6493C20.1656 33.4028 16.8133 28.8194 15.4036 23.0208C14.5784 19.6007 14.6987 16.7014 14.8191 15.4514C17.0883 14.6181 25.4262 12.0486 34.9331 15.1042L24.7558 25.5382L21.6441 22.3958C21.1971 21.9271 20.4579 21.9271 19.9937 22.3958C19.5295 22.8472 19.5295 23.5938 19.9937 24.0625L23.9478 28.0556C24.1712 28.2813 24.4635 28.4028 24.7729 28.4028C25.0824 28.4028 25.3746 28.2813 25.5981 28.0556L37.9072 15.434C38.1823 15.1563 38.3027 14.7396 38.2167 14.3576C38.1307 13.9757 37.8557 13.6458 37.4946 13.5069C30.8243 10.9028 24.6182 11.0417 20.5782 11.6146C16.1944 12.2396 13.3922 13.4722 13.2718 13.5243C12.9108 13.6806 12.6529 14.0104 12.5842 14.4097C12.567 14.566 11.9309 18.4722 13.1171 23.4722C14.2002 28.0903 17.1227 34.5486 24.8073 39.0451C24.9792 39.1493 25.1855 39.2014 25.3918 39.2014C25.5981 39.2014 25.8044 39.1493 25.9763 39.0451Z" fill="#4D3CFF"/>
<path d="M67.7692 37.5594H61.5115L71.0528 9.67749H78.5827L88.1068 37.5594H81.8491L74.9209 16.049H74.6974L67.7692 37.5594ZM67.3738 26.6046H82.1585V31.2053H67.3738V26.6046Z" fill="#15182C"/>
<path d="M98.9031 45.8407C97.0292 45.8407 95.4476 45.5802 94.1239 45.0768C92.8001 44.5559 91.7343 43.8615 90.9606 42.9761C90.1698 42.0906 89.6713 41.1011 89.4306 40.0073L94.7428 39.2782C94.8975 39.6948 95.1554 40.0941 95.5164 40.4587C95.8602 40.8233 96.3416 41.1184 96.9089 41.3441C97.4934 41.5698 98.1983 41.674 99.0406 41.674C100.296 41.674 101.327 41.3615 102.135 40.7538C102.943 40.1462 103.356 39.1219 103.356 37.6809V33.8615H103.115C102.857 34.4518 102.479 34.99 101.98 35.5108C101.482 36.0316 100.829 36.4483 100.038 36.7782C99.2469 37.108 98.3014 37.2643 97.2011 37.2643C95.6367 37.2643 94.227 36.8997 92.972 36.1705C91.6999 35.4413 90.6856 34.3129 89.9291 32.8025C89.1727 31.292 88.7945 29.365 88.7945 27.0733C88.7945 24.6948 89.1727 22.733 89.9463 21.1358C90.72 19.5386 91.7343 18.358 93.0064 17.5594C94.2786 16.7608 95.6883 16.3788 97.184 16.3788C98.353 16.3788 99.3157 16.5698 100.107 16.9691C100.897 17.3684 101.516 17.8545 101.998 18.4448C102.479 19.0351 102.857 19.608 103.115 20.1636H103.339V16.6393H109.046V37.7851C109.046 39.5733 108.616 41.0663 107.757 42.2469C106.897 43.4275 105.694 44.3476 104.181 44.9552C102.634 45.5281 100.863 45.8407 98.9031 45.8407ZM99.0235 32.9066C99.9518 32.9066 100.743 32.6809 101.379 32.2122C102.015 31.7434 102.513 31.0663 102.857 30.1983C103.201 29.3129 103.373 28.2712 103.373 27.0386C103.373 25.8059 103.201 24.7469 102.857 23.8441C102.513 22.9413 102.015 22.2295 101.379 21.7434C100.725 21.24 99.9346 20.9969 99.0063 20.9969C98.0607 20.9969 97.2699 21.2573 96.6166 21.7608C95.9634 22.2816 95.482 22.9934 95.1382 23.8962C94.8115 24.799 94.6396 25.858 94.6396 27.0559C94.6396 28.2712 94.8115 29.3129 95.1382 30.1809C95.482 31.0663 95.9634 31.7434 96.6166 32.2122C97.2871 32.6636 98.0779 32.9066 99.0235 32.9066Z" fill="#15182C"/>
<path d="M112.863 37.5594V16.6393H118.433V20.2851H118.656C119.034 18.983 119.67 17.9934 120.564 17.3337C121.458 16.6566 122.49 16.3268 123.642 16.3268C123.934 16.3268 124.243 16.3441 124.57 16.3788C124.897 16.4136 125.189 16.4656 125.447 16.5351V21.674C125.172 21.5872 124.811 21.5177 124.329 21.4483C123.848 21.3788 123.418 21.3441 123.023 21.3441C122.18 21.3441 121.424 21.5351 120.753 21.8997C120.083 22.2643 119.567 22.7851 119.189 23.4275C118.811 24.0872 118.622 24.8337 118.622 25.7018V37.542H112.863V37.5594Z" fill="#15182C"/>
<path d="M136.071 37.9587C133.939 37.9587 132.117 37.5247 130.587 36.6393C129.057 35.7538 127.871 34.5212 127.046 32.924C126.22 31.3094 125.808 29.3997 125.808 27.1948C125.808 25.042 126.22 23.167 127.046 21.5351C127.871 19.9032 129.04 18.6358 130.553 17.7504C132.066 16.865 133.836 16.3788 135.848 16.3788C137.223 16.3788 138.495 16.6045 139.664 17.0386C140.833 17.4726 141.882 18.1497 142.776 19.0177C143.67 19.9032 144.357 21.0143 144.856 22.3337C145.355 23.6705 145.595 25.233 145.595 26.9865V28.5837H128.111V24.99H140.197C140.197 24.1566 140.025 23.4101 139.664 22.7677C139.303 22.1254 138.805 21.6219 138.168 21.24C137.532 20.8754 136.793 20.6844 135.951 20.6844C135.074 20.6844 134.3 20.8927 133.63 21.292C132.959 21.6913 132.427 22.2469 132.048 22.924C131.67 23.6011 131.481 24.3476 131.464 25.1809V28.6011C131.464 29.6427 131.653 30.5282 132.031 31.292C132.409 32.0559 132.959 32.6288 133.664 33.0455C134.369 33.4622 135.194 33.6532 136.157 33.6532C136.793 33.6532 137.378 33.5664 137.911 33.3754C138.444 33.2018 138.891 32.924 139.269 32.5594C139.647 32.1948 139.939 31.7434 140.128 31.2226L145.44 31.5698C145.165 32.8545 144.615 33.983 143.79 34.9552C142.965 35.9101 141.882 36.6566 140.575 37.1948C139.303 37.6983 137.79 37.9587 136.071 37.9587Z" fill="#15182C"/>
<path d="M158.007 37.9587C155.876 37.9587 154.053 37.5247 152.523 36.6393C150.993 35.7538 149.807 34.5212 148.982 32.924C148.157 31.3094 147.744 29.3997 147.744 27.1948C147.744 25.042 148.157 23.167 148.982 21.5351C149.807 19.9032 150.976 18.6358 152.489 17.7504C154.002 16.8476 155.773 16.3788 157.784 16.3788C159.159 16.3788 160.431 16.6045 161.6 17.0386C162.769 17.4726 163.818 18.1497 164.712 19.0177C165.606 19.9032 166.294 21.0143 166.792 22.3337C167.291 23.6705 167.532 25.233 167.532 26.9865V28.5837H150.048V24.99H162.133C162.133 24.1566 161.961 23.4101 161.6 22.7677C161.239 22.1254 160.741 21.6219 160.105 21.24C159.469 20.8754 158.729 20.6844 157.887 20.6844C157.01 20.6844 156.237 20.8927 155.566 21.292C154.896 21.6913 154.363 22.2469 153.985 22.924C153.606 23.6011 153.417 24.3476 153.4 25.1809V28.6011C153.4 29.6427 153.589 30.5282 153.967 31.292C154.346 32.0559 154.896 32.6288 155.601 33.0455C156.305 33.4622 157.131 33.6532 158.093 33.6532C158.729 33.6532 159.314 33.5664 159.847 33.3754C160.38 33.2018 160.827 32.924 161.205 32.5594C161.583 32.1948 161.876 31.7434 162.065 31.2226L167.377 31.5698C167.102 32.8545 166.552 33.983 165.726 34.9552C164.901 35.9101 163.818 36.6566 162.512 37.1948C161.239 37.6983 159.727 37.9587 158.007 37.9587Z" fill="#15182C"/>
<path d="M166.122 14.3302V13.5142H169.887V14.3302H168.477V18.1497H167.514V14.3302H166.122Z" fill="#15182C"/>
<path d="M170.402 13.5316H171.606L172.878 16.6566H172.93L174.202 13.5316H175.405V18.1671H174.46V15.1462H174.425L173.239 18.1497H172.603L171.417 15.1289H171.382V18.1671H170.437V13.5316H170.402Z" fill="#15182C"/>
</svg>
