<svg width="48" height="48" viewBox="0 0 48 48" fill="none" xmlns="http://www.w3.org/2000/svg">
<rect width="48" height="48" rx="6" fill="url(#paint0_linear_186_1934)"/>
<path d="M36.349 23.0417H11.415C10.7797 23.0417 10.2605 22.5194 10.2605 21.88V20.1088C10.2605 18.1055 11.8762 16.4795 13.8681 16.4795H33.8669C35.8578 16.4795 37.4745 18.1055 37.4745 20.1088V21.88C37.5035 22.5184 36.9843 23.0417 36.349 23.0417Z" fill="white"/>
<path d="M31.0965 14.5623H16.6672C16.0319 14.5623 15.4836 14.0399 15.4836 13.3715C15.4847 10.4106 17.8797 7.99997 20.823 7.99997H26.9407C29.884 7.99997 32.279 10.4106 32.279 13.3725C32.279 14.0399 31.7598 14.5633 31.0955 14.5633L31.0965 14.5623Z" fill="white"/>
<path d="M37.5034 24.958H10.2615C8.47268 24.958 7 26.4389 7 28.2391C7 30.0393 8.47164 31.5202 10.2615 31.5202H19.9287C20.2748 29.662 21.8905 28.2391 23.8534 28.2391C25.8163 28.2391 27.461 29.662 27.8072 31.5202H37.4744C39.2632 31.5202 40.7359 30.0393 40.7359 28.2391C40.7359 26.4389 39.2933 24.958 37.5034 24.958Z" fill="white"/>
<path d="M36.32 33.4377H27.8642V40H34.213C36.0018 40 37.4745 38.519 37.4745 36.7188V34.6285C37.5035 33.9901 36.9843 33.4377 36.32 33.4377Z" fill="white"/>
<path d="M11.415 33.4377C10.7797 33.4377 10.2314 33.96 10.2314 34.6285V36.7188C10.2314 38.519 11.7031 40 13.4929 40H19.8417V33.4377C19.8707 33.4377 11.415 33.4377 11.415 33.4377Z" fill="white"/>
<defs>
<linearGradient id="paint0_linear_186_1934" x1="-1.0555e-07" y1="4" x2="45.5" y2="48" gradientUnits="userSpaceOnUse">
<stop stop-color="#C458C1"/>
<stop offset="1" stop-color="#3F44D1"/>
</linearGradient>
</defs>
</svg>
