<svg width="48" height="48" viewBox="0 0 48 48" fill="none" xmlns="http://www.w3.org/2000/svg">
<rect width="48" height="48" rx="6" fill="#C4B0F9"/>
<path d="M8 26.5285C8 18.6833 13.0079 15.1971 18.4992 15.1971C23.5109 15.1971 25.6243 18.3814 25.6243 18.3814V8.97565H31.0524V32.1553C31.0524 34.058 31.1178 35.7749 31.2506 37.3059H25.626V34.7042C25.626 34.7042 23.4723 37.8599 18.5009 37.8599C13.2011 37.8599 8 34.8187 8 26.5285ZM19.8856 33.6949C23.7299 33.6949 26.2155 30.7689 26.2155 26.5285C26.2155 22.1398 23.7282 19.3621 19.8856 19.3621C16.043 19.3621 13.6476 22.0026 13.6476 26.5285C13.6476 31.0543 16.1438 33.6949 19.8856 33.6949Z" fill="#1B1B1A"/>
<path d="M34.7712 32.2178H40V37.2883H34.7712V32.2178Z" fill="#1B1B1A"/>
</svg>
