<svg width="54" height="54" viewBox="0 0 54 54" fill="none" xmlns="http://www.w3.org/2000/svg">
<rect width="48" height="48" rx="6" fill="#4A154B"/>
<path fill-rule="evenodd" clip-rule="evenodd" d="M19.7326 8C17.9637 8.00131 16.5321 9.43684 16.5334 11.2058C16.5321 12.9747 17.965 14.4102 19.7339 14.4115H22.9345V11.2071C22.9358 9.43814 21.5029 8.00261 19.7326 8V8ZM19.7326 16.5504H11.2005C9.43161 16.5517 7.9987 17.9873 8 19.7562C7.99739 21.5251 9.4303 22.9606 11.1992 22.9632H19.7326C21.5016 22.9619 22.9345 21.5264 22.9332 19.7575C22.9345 17.9873 21.5016 16.5517 19.7326 16.5504Z" fill="#36C5F0"/>
<path fill-rule="evenodd" clip-rule="evenodd" d="M40 19.7562C40.0013 17.9873 38.5684 16.5517 36.7995 16.5504C35.0306 16.5517 33.5976 17.9873 33.5989 19.7562V22.9632H36.7995C38.5684 22.9619 40.0013 21.5264 40 19.7562ZM31.4666 19.7562V11.2058C31.4679 9.43814 30.0363 8.00262 28.2674 8C26.4984 8.00131 25.0655 9.43684 25.0668 11.2058V19.7562C25.0642 21.5251 26.4971 22.9606 28.2661 22.9632C30.035 22.9619 31.4679 21.5264 31.4666 19.7562Z" fill="#2EB67D"/>
<path fill-rule="evenodd" clip-rule="evenodd" d="M28.2661 40.0641C30.035 40.0628 31.4679 38.6272 31.4666 36.8583C31.4679 35.0894 30.035 33.6539 28.2661 33.6526H25.0655V36.8583C25.0642 38.6259 26.4971 40.0614 28.2661 40.0641ZM28.2661 31.5123H36.7995C38.5684 31.511 40.0013 30.0755 40 28.3066C40.0026 26.5377 38.5697 25.1021 36.8008 25.0995H28.2674C26.4984 25.1008 25.0655 26.5364 25.0668 28.3053C25.0655 30.0755 26.4971 31.511 28.2661 31.5123Z" fill="#ECB22E"/>
<path fill-rule="evenodd" clip-rule="evenodd" d="M8 28.3066C7.99869 30.0755 9.43161 31.511 11.2005 31.5123C12.9694 31.511 14.4024 30.0755 14.401 28.3066V25.1008H11.2005C9.43161 25.1021 7.99869 26.5377 8 28.3066ZM16.5334 28.3066V36.857C16.5308 38.6259 17.9637 40.0614 19.7326 40.0641C21.5016 40.0628 22.9345 38.6272 22.9332 36.8583V28.3092C22.9358 26.5403 21.5029 25.1048 19.7339 25.1021C17.9637 25.1021 16.5321 26.5377 16.5334 28.3066Z" fill="#E01E5A"/>
<rect x="38" y="38" width="16" height="16" rx="8" fill="#F5B642"/>
<g opacity="0.5">
<path d="M44.5 47.5002H42.95C42.75 47.5002 42.6021 47.4106 42.5062 47.2315C42.4104 47.0523 42.4208 46.8794 42.5375 46.7127L46.275 41.3377C46.3583 41.2211 46.4667 41.1398 46.6 41.094C46.7333 41.0481 46.8708 41.0502 47.0125 41.1002C47.1542 41.1502 47.2583 41.2377 47.325 41.3627C47.3917 41.4877 47.4167 41.6211 47.4 41.7627L47 45.0002H48.9375C49.1542 45.0002 49.3062 45.0961 49.3937 45.2877C49.4812 45.4794 49.4542 45.6586 49.3125 45.8252L45.2 50.7502C45.1083 50.8586 44.9958 50.9294 44.8625 50.9627C44.7292 50.9961 44.6 50.9836 44.475 50.9252C44.35 50.8669 44.2521 50.7773 44.1812 50.6565C44.1104 50.5356 44.0833 50.4044 44.1 50.2627L44.5 47.5002Z" fill="#1B1E2E"/>
</g>
</svg>
