<svg width="80" height="35" viewBox="0 0 80 35" fill="none" xmlns="http://www.w3.org/2000/svg">
<path d="M16.9758 16.7273V24.444C16.9758 24.5691 16.9261 24.689 16.8377 24.7775C16.7492 24.8659 16.6293 24.9156 16.5042 24.9156H14.0682C13.9432 24.9156 13.8232 24.8659 13.7348 24.7774C13.6464 24.689 13.5967 24.5691 13.5966 24.444V11.8924C13.5966 11.7673 13.6463 11.6474 13.7347 11.5589C13.8232 11.4705 13.9431 11.4208 14.0682 11.4208H16.3224C16.4475 11.4208 16.5675 11.4705 16.6559 11.5589C16.7444 11.6474 16.7941 11.7673 16.7941 11.8924V13.66C16.7941 13.66 17.5999 11.1386 19.9913 11.1386C19.9913 11.1386 22.3568 10.8526 23.3186 13.478C23.3186 13.478 24.1244 11.1386 26.5678 11.1386C26.5678 11.1386 30.2016 10.9225 30.2016 14.6825L30.2292 16.7533V24.47C30.2292 24.5951 30.1795 24.715 30.0911 24.8035C30.0026 24.8919 29.8827 24.9416 29.7576 24.9416H27.3214C27.1964 24.9416 27.0764 24.8919 26.988 24.8034C26.8996 24.715 26.8499 24.595 26.8498 24.47L26.8276 16.0515C26.8968 14.1452 25.3546 14.2839 25.3546 14.2839C23.4138 14.3186 23.6006 16.7533 23.6006 16.7533V24.47C23.6006 24.5951 23.5509 24.715 23.4624 24.8035C23.374 24.8919 23.254 24.9416 23.1289 24.9416H20.693C20.5679 24.9416 20.448 24.8919 20.3595 24.8034C20.2711 24.715 20.2214 24.595 20.2213 24.47V16.2419C20.2213 16.2419 20.3638 14.2664 18.6307 14.2664C18.6307 14.2664 16.9153 14.0412 16.9758 16.7273ZM79.768 16.7042V24.4207C79.768 24.5458 79.7182 24.6657 79.6298 24.7541C79.5414 24.8426 79.4214 24.8923 79.2964 24.8923L76.7629 24.9414C76.6378 24.9413 76.5179 24.8916 76.4294 24.8032C76.341 24.7148 76.2913 24.5948 76.2912 24.4698V16.2419C76.2912 16.2419 76.4337 14.2664 74.7008 14.2664C74.7008 14.2664 73.0457 14.1849 73.0457 17.2823V24.4438C73.0457 24.5688 72.996 24.6888 72.9075 24.7772C72.8191 24.8656 72.6992 24.9154 72.5741 24.9154H70.1379C70.0129 24.9154 69.893 24.8656 69.8045 24.7772C69.7161 24.6888 69.6664 24.5688 69.6663 24.4438V11.8924C69.6664 11.7673 69.7161 11.6474 69.8045 11.559C69.893 11.4705 70.0129 11.4208 70.1379 11.4208H72.3921C72.5172 11.4208 72.6372 11.4705 72.7256 11.5589C72.8141 11.6474 72.8638 11.7673 72.8638 11.8924V13.66C72.8638 13.66 73.6696 11.1386 76.061 11.1386C76.061 11.1386 78.6228 10.7499 79.4856 13.4292C79.4856 13.4292 79.768 13.9817 79.768 16.7042ZM62.1794 11.0866C59.0643 11.0866 56.5387 13.712 56.5387 18.131C56.5387 22.0215 58.4883 25.1754 62.1794 25.1754C65.6626 25.1754 67.8201 22.0215 67.8201 18.131C67.8201 13.79 65.2947 11.0866 62.1794 11.0866ZM64.1456 18.2869C64.1456 19.9506 63.9377 20.8344 63.9377 20.8344C63.6417 22.593 62.3651 22.5955 62.1769 22.5861C61.9738 22.5942 60.6863 22.5759 60.4199 20.8344C60.4199 20.8344 60.212 19.9506 60.212 18.2869V18.0097C60.212 16.3461 60.4199 15.4623 60.4199 15.4623C60.6863 13.7207 61.974 13.7024 62.1769 13.7103C62.3651 13.701 63.6417 13.7033 63.9377 15.4623C63.9377 15.4623 64.1456 16.3461 64.1456 18.0097V18.2869ZM55.1248 13.6425V11.8417C55.1248 11.7166 55.0751 11.5967 54.9866 11.5082C54.8982 11.4198 54.7783 11.3701 54.6532 11.37H46.6013C46.4762 11.37 46.3563 11.4197 46.2678 11.5082C46.1794 11.5966 46.1297 11.7166 46.1297 11.8417V13.6286C46.1297 13.7537 46.1794 13.8736 46.2679 13.962C46.3563 14.0505 46.4762 14.1002 46.6013 14.1002H50.8013L45.83 21.312C45.83 21.312 45.6341 21.6044 45.6406 21.9273V24.121C45.6406 24.121 45.6081 24.8732 46.4611 24.4367C46.4611 24.4367 47.9763 23.5213 50.5168 23.5213C50.5168 23.5213 53.0258 23.4901 54.6985 24.5155C54.6985 24.5155 55.3929 24.8312 55.3929 24.137V22.2276C55.3929 22.2276 55.4559 21.7223 54.7932 21.4068C54.7932 21.4068 52.8679 20.3496 50.3432 20.523L55.1248 13.6425ZM11.7165 22.671L10.9539 21.5102C10.7113 21.0768 10.7287 20.5915 10.7287 20.5915V15.2369C10.8327 10.61 5.70315 11.0086 5.70315 11.0086C1.14318 11.0086 0.469623 14.5573 0.469623 14.5573C0.279555 15.2708 0.832292 15.2881 0.832292 15.2881L3.0605 15.5141C3.0605 15.5141 3.44043 15.601 3.57871 15.1487C3.57871 15.1487 3.87214 13.6005 5.51309 13.6005C7.29856 13.6005 7.28005 15.1329 7.28005 15.1329V16.4158C3.71576 16.5349 2.06399 17.5244 2.06399 17.5244C-0.136765 18.7721 0.00173084 21.2503 0.00173084 21.2503C0.00173084 25.2879 3.84884 25.1144 3.84884 25.1144C6.30954 25.1144 7.76521 23.3123 7.76521 23.3123C8.19837 24.0751 8.99566 24.8025 8.99566 24.8025C9.39451 25.235 9.81021 24.8719 9.81021 24.8719L11.6125 23.3298C12.011 23.0349 11.7165 22.671 11.7165 22.671ZM5.04977 22.6211C3.89231 22.6211 3.46205 21.4709 3.6542 20.3405C3.84656 19.21 4.84556 18.3217 7.28026 18.3477V19.0349C7.36656 22.0374 6.01321 22.6211 5.04977 22.6211ZM44.0876 22.671L43.3252 21.5102C43.0825 21.0768 43.0998 20.5915 43.0998 20.5915V15.2369C43.2038 10.61 38.0742 11.0086 38.0742 11.0086C33.5143 11.0086 32.8407 14.5573 32.8407 14.5573C32.6506 15.2708 33.2034 15.2881 33.2034 15.2881L35.4316 15.5141C35.4316 15.5141 35.8115 15.601 35.9498 15.1487C35.9498 15.1487 36.2432 13.6005 37.8842 13.6005C39.6696 13.6005 39.6511 15.1329 39.6511 15.1329V16.4158C36.087 16.5349 34.4351 17.5244 34.4351 17.5244C32.2343 18.7721 32.3728 21.2503 32.3728 21.2503C32.3728 25.2879 36.2199 25.1144 36.2199 25.1144C38.6806 25.1144 40.1363 23.3123 40.1363 23.3123C40.5697 24.0751 41.3665 24.8025 41.3665 24.8025C41.7654 25.235 42.1813 24.8719 42.1813 24.8719L43.9834 23.3298C44.382 23.0349 44.0876 22.671 44.0876 22.671ZM37.4208 22.6211C36.2634 22.6211 35.8331 21.4709 36.0253 20.3405C36.2176 19.21 37.2166 18.3217 39.6511 18.3477V19.0349C39.7376 22.0374 38.3845 22.6211 37.4208 22.6211Z" fill="white"/>
<path d="M50.2213 32.8062C50.2213 32.8062 50.0175 33.1608 50.2678 33.24C50.2678 33.24 50.5507 33.3505 50.9034 33.0231C50.9034 33.0231 53.4755 30.7762 53.5375 26.6854C53.5375 26.6854 53.5564 26.1744 53.3514 26.0347C53.3514 26.0347 52.5456 25.3218 49.6479 25.5387C49.6479 25.5387 47.1222 25.7093 45.7432 26.9335C45.7432 26.9335 45.6193 27.0418 45.6193 27.1811C45.6193 27.1811 45.5896 27.4821 46.3475 27.3517C46.3475 27.3517 48.8731 26.995 50.3762 27.1811C50.3762 27.1811 51.1512 27.2741 51.3681 27.5378C51.3681 27.5378 51.7246 27.8322 51.5384 28.8082C51.5384 28.8082 51.0269 31.2878 50.2213 32.8062Z" fill="white"/>
<path d="M49.712 28.8816C49.712 28.8816 50.0892 29.3703 49.4805 29.7918C49.4805 29.7918 42.9785 34.9927 32.061 34.9927C32.061 34.9927 20.8229 35.5471 11.439 27.021C11.439 27.021 11.1101 26.7322 11.3143 26.4637C11.3143 26.4637 11.4968 26.2167 11.9695 26.4853C11.9695 26.4853 20.7969 31.9859 32.3902 31.9859C32.3902 31.9859 40.4484 32.2978 48.7145 28.7626C48.7145 28.7626 49.373 28.4214 49.712 28.8816Z" fill="white"/>
</svg>
