<svg width="109" height="32" viewBox="0 0 109 32" fill="none" xmlns="http://www.w3.org/2000/svg">
<path d="M22.0118 15.2813H3.31126C2.83479 15.2813 2.44537 14.8896 2.44537 14.41V13.0816C2.44537 11.5792 3.65714 10.3596 5.15107 10.3596H20.1502C21.6433 10.3596 22.8559 11.5792 22.8559 13.0816V14.41C22.8776 14.8888 22.4882 15.2813 22.0118 15.2813Z" fill="#15182C"/>
<path d="M18.0724 8.92172H7.25037C6.7739 8.92172 6.36272 8.52997 6.36272 8.02863C6.3635 5.80795 8.15979 4 10.3673 4H14.9555C17.163 4 18.9593 5.80795 18.9593 8.0294C18.9593 8.52997 18.5699 8.92249 18.0716 8.92249L18.0724 8.92172Z" fill="#15182C"/>
<path d="M22.8776 16.7185H2.44609C1.10451 16.7185 0 17.8292 0 19.1793C0 20.5295 1.10373 21.6402 2.44609 21.6402H9.69653C9.95614 20.2466 11.1679 19.1793 12.6401 19.1793C14.1122 19.1793 15.3458 20.2466 15.6054 21.6402H22.8558C24.1974 21.6402 25.3019 20.5295 25.3019 19.1793C25.3019 17.8292 24.2199 16.7185 22.8776 16.7185Z" fill="#15182C"/>
<path d="M21.99 23.0783H15.6482V28H20.4098C21.7513 28 22.8559 26.8893 22.8559 25.5391V23.9714C22.8776 23.4926 22.4882 23.0783 21.99 23.0783Z" fill="#15182C"/>
<path d="M3.31123 23.0783C2.83476 23.0783 2.42358 23.47 2.42358 23.9714V25.5391C2.42358 26.8893 3.52731 28 4.86967 28H9.63127V23.0783C9.65303 23.0783 3.31123 23.0783 3.31123 23.0783Z" fill="#15182C"/>
<path d="M43.4241 18.1853C43.4241 21.8175 40.9298 24.1501 37.6722 24.1501C36.1169 24.1501 34.8841 23.648 34.0625 22.6438V23.9729H30.864V7.99755H34.2094V13.6383C35.0606 12.6931 36.2342 12.2205 37.6722 12.2205C40.9002 12.2205 43.4241 14.5523 43.4241 18.1853ZM40.0204 18.1853C40.0204 16.1768 38.7588 14.9666 37.0854 14.9666C35.4119 14.9666 34.1504 16.1776 34.1504 18.1853C34.1504 20.193 35.4119 21.404 37.0854 21.404C38.7588 21.404 40.0204 20.193 40.0204 18.1853Z" fill="#15182C"/>
<path d="M54.1085 20.3415L55.8985 22.2909C54.8422 23.5314 53.2278 24.1509 51.1447 24.1509C47.1534 24.1509 44.5713 21.6411 44.5713 18.1853C44.5713 14.7296 47.1829 12.2205 50.7343 12.2205C53.9919 12.2205 56.6626 14.3759 56.6922 18.0975L48.1522 19.7508C48.6512 20.9027 49.7075 21.4639 51.2046 21.4639C52.4373 21.4639 53.3172 21.1094 54.11 20.3415H54.1085ZM47.8281 17.8309L53.433 16.738C53.1105 15.5566 52.1124 14.7591 50.704 14.7591C49.0609 14.7591 47.8864 15.8823 47.8281 17.8309Z" fill="#15182C"/>
<path d="M67.2328 20.3415L69.0228 22.2909C67.9657 23.5314 66.3521 24.1509 64.2682 24.1509C60.2769 24.1509 57.6948 21.6411 57.6948 18.1853C57.6948 14.7296 60.3065 12.2205 63.8578 12.2205C67.1146 12.2205 69.7854 14.3759 69.8149 18.0975L61.3045 19.7508C61.8035 20.9027 62.8598 21.4639 64.3561 21.4639C65.5593 21.4639 66.44 21.1094 67.2328 20.3415ZM60.9524 17.8309L66.5573 16.738C66.2347 15.5566 65.2367 14.7591 63.8283 14.7591C62.1844 14.7591 61.0402 15.8823 60.9524 17.8309Z" fill="#15182C"/>
<path d="M83.4438 17.3591V24.0032H80.0984V17.8612C80.0984 16.0004 79.2473 15.1151 77.751 15.1151C76.1366 15.1151 74.9925 16.1193 74.9925 18.2452V23.9737H71.6471V7.99755H74.9925V13.6087C75.9019 12.6931 77.1929 12.2205 78.6604 12.2205C81.3902 12.2205 83.4438 13.8155 83.4438 17.3591Z" fill="#15182C"/>
<path d="M85.1716 8.98147C85.1716 8.04563 85.9209 7.31732 87.0052 7.31732C88.0895 7.31732 88.8396 7.99355 88.8396 8.90296C88.8396 9.89088 88.0903 10.6184 87.0052 10.6184C85.9201 10.6184 85.1716 9.91731 85.1716 8.98147Z" fill="#15182C"/>
<path d="M85.3325 12.3978H88.6779V24.0033H85.3325V12.3978Z" fill="#15182C"/>
<path d="M90.4128 12.3978H93.7582V24.0033H90.4128V12.3978Z" fill="#15182C"/>
<path d="M108.579 12.3978L103.708 24.0033H100.245L95.403 12.3978H98.8657L102.064 20.2824L105.351 12.3978H108.579Z" fill="#15182C"/>
<path d="M90.2511 8.98147C90.2511 8.04563 91.0004 7.31732 92.0847 7.31732C93.169 7.31732 93.9191 7.99355 93.9191 8.90296C93.9191 9.89088 93.1698 10.6184 92.0847 10.6184C90.9996 10.6184 90.2511 9.91731 90.2511 8.98147Z" fill="#15182C"/>
</svg>
