<svg width="71" height="32" viewBox="0 0 71 32" fill="none" xmlns="http://www.w3.org/2000/svg">
<path d="M29.9247 27.9856C28.1041 27.9856 26.481 27.6347 25.0552 26.9328C23.6294 26.2309 22.4998 25.2109 21.6662 23.8729C20.8547 22.5129 20.4488 20.9008 20.4488 19.0363C20.4488 17.0841 20.8437 15.3622 21.6333 13.8706C22.423 12.3791 23.5197 11.2275 24.9236 10.4159C26.3493 9.5824 27.9834 9.16564 29.826 9.16564C31.7343 9.16564 33.3356 9.5824 34.6298 10.4159C35.9239 11.2275 36.889 12.401 37.5251 13.9365C38.1832 15.4719 38.5012 17.2925 38.4792 19.3982H22.2585V16.3383H35.9458L34.0046 17.786C34.0046 16.7112 33.851 15.768 33.5439 14.9564C33.2588 14.1449 32.7982 13.4978 32.1621 13.0152C31.5479 12.5326 30.7692 12.2913 29.826 12.2913C28.8609 12.2913 28.0163 12.5546 27.2925 13.081C26.5687 13.6075 26.0093 14.3751 25.6145 15.3842C25.2197 16.3931 25.0223 17.5776 25.0223 18.9376C25.0223 20.144 25.2307 21.1859 25.6474 22.0633C26.0861 22.9407 26.6783 23.6096 27.4241 24.0703C28.1919 24.509 29.0364 24.7284 29.9576 24.7284C31.2298 24.7284 32.2827 24.3884 33.1162 23.7084C33.9717 23.0064 34.5968 22.1291 34.9916 21.0762L38.7096 23.3136C37.6567 24.8928 36.3735 26.0664 34.86 26.8341C33.3685 27.6018 31.7233 27.9856 29.9247 27.9856Z" fill="#15182C"/>
<path d="M49.256 27.9856C47.4354 27.9856 45.8123 27.6347 44.3865 26.9328C42.9607 26.2309 41.8311 25.2109 40.9976 23.8729C40.186 22.5129 39.7802 20.9008 39.7802 19.0363C39.7802 17.0841 40.175 15.3622 40.9647 13.8706C41.7543 12.3791 42.8511 11.2275 44.2548 10.4159C45.6806 9.5824 47.3147 9.16564 49.1573 9.16564C51.0656 9.16564 52.6669 9.5824 53.961 10.4159C55.2552 11.2275 56.2203 12.401 56.8564 13.9365C57.5144 15.4719 57.8325 17.2925 57.8105 19.3982H41.5898V16.3383H55.2771L53.3359 17.786C53.3359 16.7112 53.1823 15.768 52.8752 14.9564C52.5901 14.1449 52.1295 13.4978 51.4934 13.0152C50.8792 12.5326 50.1005 12.2913 49.1573 12.2913C48.1922 12.2913 47.3476 12.5546 46.6238 13.081C45.9 13.6075 45.3407 14.3751 44.9458 15.3842C44.551 16.3931 44.3536 17.5776 44.3536 18.9376C44.3536 20.144 44.562 21.1859 44.9787 22.0633C45.4174 22.9407 46.0096 23.6096 46.7554 24.0703C47.5231 24.509 48.3677 24.7284 49.2889 24.7284C50.5611 24.7284 51.6139 24.3884 52.4475 23.7084C53.303 23.0064 53.9281 22.1291 54.3229 21.0762L58.0409 23.3136C56.988 24.8928 55.7048 26.0664 54.1913 26.8341C52.6998 27.6018 51.0546 27.9856 49.256 27.9856Z" fill="#15182C"/>
<path d="M59.276 4H63.6849V23.2478C63.6849 24.8052 63.7616 26.2309 63.9152 27.525H59.276V4Z" fill="#15182C"/>
<path d="M0 18.5881C0 12.0719 4.15956 9.17628 8.72061 9.17628C12.8834 9.17628 14.6387 11.8212 14.6387 11.8212V4.00873H19.1473V23.2617C19.1473 24.8421 19.2016 26.2682 19.312 27.5398H14.6402V25.3788C14.6402 25.3788 12.8513 28 8.72208 28C4.32006 28 0 25.474 0 18.5881ZM9.87216 24.5405C13.0653 24.5405 15.1298 22.1102 15.1298 18.5881C15.1298 14.9429 13.0638 12.6357 9.87216 12.6357C6.68047 12.6357 4.69085 14.8289 4.69085 18.5881C4.69085 22.3473 6.76427 24.5405 9.87216 24.5405Z" fill="#15182C"/>
<path d="M66.5348 23.3137H70.8778V27.5252H66.5348V23.3137Z" fill="#15182C"/>
</svg>
