<svg width="79" height="33" viewBox="0 0 79 33" fill="none" xmlns="http://www.w3.org/2000/svg">
<path d="M33.8006 20.6825C33.8006 24.4232 30.8743 27.1796 27.283 27.1796C23.6917 27.1796 20.7654 24.4232 20.7654 20.6825C20.7654 16.9155 23.6917 14.1854 27.283 14.1854C30.8743 14.1854 33.8006 16.9155 33.8006 20.6825ZM30.9475 20.6825C30.9475 18.345 29.2515 16.7456 27.283 16.7456C25.3146 16.7456 23.6185 18.345 23.6185 20.6825C23.6185 22.9966 25.3146 24.6194 27.283 24.6194C29.2515 24.6194 30.9475 22.9937 30.9475 20.6825Z" fill="#15182C"/>
<path d="M47.861 20.6825C47.861 24.4232 44.9346 27.1796 41.3434 27.1796C37.7521 27.1796 34.8258 24.4232 34.8258 20.6825C34.8258 16.9184 37.7521 14.1854 41.3434 14.1854C44.9346 14.1854 47.861 16.9155 47.861 20.6825ZM45.0079 20.6825C45.0079 18.345 43.3118 16.7456 41.3434 16.7456C39.3749 16.7456 37.6789 18.345 37.6789 20.6825C37.6789 22.9966 39.3749 24.6194 41.3434 24.6194C43.3118 24.6194 45.0079 22.9937 45.0079 20.6825Z" fill="#15182C"/>
<path d="M61.3355 14.578V26.2422C61.3355 31.0403 58.5059 33 55.1606 33C52.0117 33 50.1165 30.8939 49.4017 29.1715L51.8858 28.1374C52.3281 29.1949 53.4119 30.4428 55.1577 30.4428C57.299 30.4428 58.6259 29.1217 58.6259 26.6347V25.7003H58.5264C57.8878 26.4883 56.6575 27.1767 55.105 27.1767C51.8565 27.1767 48.8803 24.347 48.8803 20.7059C48.8803 17.0385 51.8565 14.1854 55.105 14.1854C56.6546 14.1854 57.8849 14.8738 58.5264 15.6384H58.6259V14.5809H61.3355V14.578ZM58.8281 20.7059C58.8281 18.4182 57.3019 16.7456 55.3598 16.7456C53.3914 16.7456 51.7422 18.4182 51.7422 20.7059C51.7422 22.9703 53.3914 24.6194 55.3598 24.6194C57.3019 24.6194 58.8281 22.9703 58.8281 20.7059Z" fill="#15182C"/>
<path d="M65.8026 7.7411V26.7812H63.0198V7.7411H65.8026Z" fill="#15182C"/>
<path d="M76.6467 22.8209L78.8612 24.2972C78.1465 25.3547 76.4241 27.1767 73.4479 27.1767C69.7571 27.1767 67.0007 24.3236 67.0007 20.6796C67.0007 16.8159 69.7805 14.1825 73.1287 14.1825C76.5002 14.1825 78.1494 16.8657 78.6884 18.3157L78.9842 19.0539L70.299 22.651C70.9639 23.9545 71.998 24.6194 73.4479 24.6194C74.9008 24.6194 75.9085 23.9047 76.6467 22.8209ZM69.8303 20.4833L75.6361 18.0726C75.3168 17.2612 74.356 16.6958 73.2253 16.6958C71.7753 16.6958 69.7571 17.9759 69.8303 20.4833Z" fill="#15182C"/>
<path d="M10.2319 18.9923V16.2359H19.5205C19.6113 16.7163 19.6582 17.2846 19.6582 17.8997C19.6582 19.9678 19.0928 22.525 17.2708 24.347C15.4986 26.1924 13.2343 27.1767 10.2348 27.1767C4.67508 27.1767 0 22.648 0 17.0883C0 11.5286 4.67508 7 10.2348 7C13.3105 7 15.5016 8.20685 17.1478 9.77986L15.2028 11.7249C14.0223 10.6176 12.4229 9.75642 10.2319 9.75642C6.17192 9.75642 2.99662 13.0284 2.99662 17.0883C2.99662 21.1483 6.17192 24.4202 10.2319 24.4202C12.8653 24.4202 14.365 23.3628 15.3258 22.402C16.105 21.6228 16.6176 20.5097 16.8197 18.9894L10.2319 18.9923Z" fill="#15182C"/>
</svg>
