<svg width="105" height="32" viewBox="0 0 105 32" fill="none" xmlns="http://www.w3.org/2000/svg">
<path d="M38.2497 6.17476H42.1993L48.9151 18.323L55.6307 6.17477H59.4948V26.1366H56.2724V10.8374L50.3837 21.4314H47.3609L41.4721 10.8374V26.1366H38.2497V6.17476Z" fill="white"/>
<path d="M69.8891 26.4931C68.3966 26.4931 67.0849 26.1627 65.9538 25.5021C64.8225 24.8414 63.9409 23.9265 63.3088 22.7573C62.6766 21.5881 62.3605 20.2478 62.3607 18.7364C62.3607 17.2061 62.6696 15.8515 63.2874 14.6728C63.9053 13.4942 64.7632 12.5722 65.8611 11.9065C66.9591 11.2413 68.2209 10.9086 69.6467 10.9085C71.063 10.9085 72.2821 11.2435 73.304 11.9136C74.3257 12.5839 75.1123 13.5226 75.6638 14.7298C76.215 15.9371 76.4906 17.3534 76.4908 18.9788V19.8627H65.5545C65.7542 21.0797 66.2461 22.0374 67.0303 22.7358C67.8145 23.4345 68.8055 23.7839 70.0032 23.7838C70.9632 23.7838 71.7902 23.6412 72.4841 23.3561C73.1779 23.0709 73.8291 22.6384 74.4376 22.0586L76.1486 24.1546C74.4469 25.7137 72.3604 26.4932 69.8891 26.4931ZM72.2418 14.6513C71.5667 13.9622 70.6827 13.6176 69.5897 13.6175C68.525 13.6175 67.6338 13.9693 66.9163 14.6728C66.1984 15.3762 65.7445 16.322 65.5545 17.5102H73.3967C73.3016 16.2934 72.9166 15.3405 72.2418 14.6513Z" fill="white"/>
<path d="M80.3979 13.9029H77.4321V11.265H80.3979V6.90198H83.5062V11.265H88.0118V13.9029H83.5062V20.59C83.5062 21.7021 83.6963 22.4958 84.0765 22.9711C84.4565 23.4466 85.1077 23.6842 86.03 23.6841C86.4385 23.6841 86.7854 23.6674 87.0708 23.6342C87.356 23.601 87.6696 23.5559 88.0118 23.4987V26.1079C87.6214 26.2209 87.2235 26.3067 86.8212 26.3647C86.361 26.4324 85.8963 26.4658 85.431 26.4645C82.0754 26.4645 80.3977 24.6299 80.3979 20.9608V13.9029Z" fill="white"/>
<path d="M104.21 26.1366H101.158V24.0548C100.617 24.8344 99.9275 25.4356 99.091 25.8585C98.2545 26.2813 97.3039 26.4929 96.2393 26.4931C94.9276 26.4931 93.7655 26.158 92.7531 25.4878C91.7408 24.8177 90.9447 23.8956 90.3648 22.7217C89.785 21.5477 89.495 20.2051 89.4951 18.6937C89.4951 17.1729 89.7897 15.8278 90.3791 14.6585C90.9684 13.4894 91.7835 12.5721 92.8244 11.9066C93.8653 11.2414 95.0606 10.9087 96.4104 10.9085C97.4275 10.9085 98.34 11.1058 99.148 11.5004C99.9451 11.8859 100.635 12.4612 101.158 13.1756V11.2651H104.21V26.1366ZM101.101 16.4694C100.769 15.6234 100.243 14.9556 99.5259 14.466C98.8081 13.9765 97.9787 13.7318 97.0378 13.7318C95.7068 13.7318 94.647 14.1785 93.8582 15.072C93.0691 15.9655 92.6746 17.1728 92.6747 18.6937C92.6747 20.2242 93.055 21.4362 93.8154 22.3297C94.5758 23.2232 95.6071 23.67 96.9095 23.6699C97.8694 23.6699 98.7249 23.4227 99.476 22.9284C100.227 22.4344 100.769 21.769 101.101 20.9322V16.4694Z" fill="white"/>
<path d="M22.68 5.5C20.0888 5.5 18.0632 7.45165 16.2296 9.93085C13.7098 6.72252 11.6025 5.5 9.08069 5.5C3.93931 5.5 0 12.191 0 19.2731C0 23.7048 2.14401 26.5 5.73517 26.5C8.31987 26.5 10.1788 25.2815 13.4834 19.5048C13.4834 19.5048 14.861 17.0722 15.8087 15.3964C16.1408 15.9326 16.4905 16.5103 16.8579 17.1297L18.4076 19.7366C21.4263 24.7881 23.1082 26.5 26.1559 26.5C29.6544 26.5 31.6014 23.6666 31.6014 19.1428C31.6014 11.7276 27.5732 5.5 22.68 5.5ZM10.9634 17.9407C8.28414 22.1407 7.35724 23.0821 5.86552 23.0821C4.33035 23.0821 3.41793 21.7343 3.41793 19.331C3.41793 14.1897 5.98138 8.93241 9.03724 8.93241C10.6921 8.93241 12.075 9.88813 14.1932 12.9206C12.1818 16.0057 10.9634 17.9407 10.9634 17.9407ZM21.0755 17.412L19.2227 14.3218C18.7213 13.5064 18.2394 12.7558 17.7771 12.07C19.447 9.49257 20.8245 8.20828 22.4628 8.20828C25.8662 8.20828 28.589 13.2193 28.589 19.3745C28.589 21.7207 27.8205 23.0821 26.2283 23.0821C24.7022 23.0821 23.9732 22.0742 21.0755 17.412Z" fill="white"/>
</svg>
