<svg width="109" height="32" viewBox="0 0 109 32" fill="none" xmlns="http://www.w3.org/2000/svg">
<path d="M15.5838 12.2748C16.1659 11.1863 16.9796 10.348 18.029 9.75804C19.0763 9.17006 20.3053 8.87558 21.7148 8.87558C23.1244 8.87558 24.2915 9.16515 25.2682 9.74528C26.2459 10.3254 26.9772 11.094 27.4611 12.051C27.945 13.0091 28.1875 14.0584 28.1875 15.199V16.7794H17.2221C17.3104 18.1497 17.7728 19.2393 18.6091 20.0471C19.4454 20.8559 20.5683 21.2594 21.9789 21.2594C23.1234 21.2594 24.001 21.0267 24.6076 20.5615C25.2162 20.0962 25.6599 19.4513 25.9426 18.6248H28.4535C28.1188 19.9067 27.4366 21.0189 26.4059 21.9583C25.3762 22.8986 23.8999 23.3679 21.9799 23.3679C20.535 23.3679 19.2618 23.0734 18.1605 22.4854C17.0601 21.8974 16.2091 21.0582 15.6103 19.9686C15.0115 18.879 14.7121 17.5971 14.7121 16.1207C14.7121 14.6444 15.0027 13.3634 15.5848 12.2739L15.5838 12.2748ZM25.546 14.8034C25.546 13.6088 25.2378 12.6744 24.6213 11.9971C24.0049 11.3207 23.0361 10.9831 21.7139 10.9831C20.481 10.9831 19.4719 11.3119 18.6886 11.9706C17.9043 12.6292 17.4243 13.5745 17.2486 14.8034H25.546ZM31.4817 9.27018V11.4572C31.4817 11.5809 31.5436 11.6417 31.6672 11.6417C31.7379 11.6417 31.7899 11.624 31.8263 11.5887C31.8626 11.5534 31.8969 11.4837 31.9313 11.3786C32.3887 9.93865 33.5254 9.21816 35.3404 9.21816H36.5026V11.5887H34.9958C33.815 11.5887 32.9345 11.8694 32.3524 12.4319C31.7703 12.9944 31.4798 13.9161 31.4798 15.199V22.9723H29.1014V9.2692H31.4817V9.27018ZM50.4677 20.0864C49.8425 21.1838 49.0317 22.0054 48.0363 22.5492C47.041 23.093 45.9701 23.3659 44.8255 23.3659C42.5708 23.3659 40.9845 22.4707 40.0687 20.6783C39.998 20.5389 39.9097 20.4682 39.8047 20.4682C39.6996 20.4682 39.6456 20.5212 39.6456 20.6263V27.9774H37.2672V9.27117H39.6456V11.6162C39.6456 11.7212 39.6987 11.7742 39.8047 11.7742C39.9107 11.7742 39.998 11.7036 40.0687 11.5642C40.9845 9.77178 42.5708 8.87656 44.8255 8.87656C45.9701 8.87656 47.041 9.14945 48.0363 9.69325C49.0317 10.2371 49.8415 11.0586 50.4677 12.1571C51.093 13.2545 51.4061 14.5777 51.4061 16.1217C51.4061 17.6658 51.093 18.988 50.4677 20.0864ZM47.7193 12.3396C46.8466 11.4346 45.6972 10.9821 44.2709 10.9821C42.8447 10.9821 41.6942 11.4346 40.8226 12.3396C39.9499 13.2447 39.6299 14.505 39.6299 16.1207C39.6299 17.7364 39.9499 18.9978 40.8226 19.9018C41.6952 20.8069 42.8447 21.2594 44.2709 21.2594C45.6972 21.2594 46.8476 20.8079 47.7193 19.9018C48.5919 18.9968 49.0277 17.7364 49.0277 16.1207C49.0277 14.505 48.5919 13.2447 47.7193 12.3396ZM54.8574 4V22.9713H52.479V4.00196H54.8574V4ZM56.8157 12.2739C57.3968 11.1853 58.2115 10.347 59.2609 9.75706C60.3082 9.16908 61.5372 8.8746 62.9458 8.8746C64.3544 8.8746 65.5234 9.16417 66.5001 9.74429C67.4778 10.3244 68.2091 11.093 68.693 12.0501C69.1779 13.0081 69.4194 14.0574 69.4194 15.198V16.7784H58.454C58.5423 18.1487 59.0047 19.2383 59.841 20.0461C60.6773 20.855 61.8002 21.2584 63.2108 21.2584C64.3553 21.2584 65.2319 21.0258 65.8395 20.5605C66.4481 20.0952 66.8918 19.4503 67.1745 18.6238H69.6854C69.3507 19.9058 68.6675 21.0179 67.6378 21.9573C66.6081 22.8977 65.1318 23.3669 63.2118 23.3669C61.7669 23.3669 60.4937 23.0724 59.3924 22.4844C58.292 21.8964 57.441 21.0572 56.8422 19.9676C56.2434 18.878 55.944 17.5961 55.944 16.1198C55.944 14.6434 56.2346 13.3625 56.8167 12.2729H56.8157V12.2739ZM66.7779 14.8025C66.7779 13.6079 66.4697 12.6734 65.8532 11.9961C65.2368 11.3198 64.268 10.9821 62.9458 10.9821C61.7139 10.9821 60.7038 11.3109 59.9205 11.9696C59.1362 12.6282 58.6572 13.5735 58.4805 14.8025H66.7779ZM68.3612 22.4442L73.8042 15.7242L69.3389 9.79632V9.2692H71.9548L75.682 14.3804L79.6986 9.2692H82.3666V9.82282L77.2407 16.1207L81.971 22.4442V22.9713H79.4081L75.3649 17.4645L71.0321 22.9713H68.3632V22.4442H68.3612ZM85.8199 4.80982V7.77521H83.042V4.80982H85.8199ZM85.6756 22.9723H83.2962V9.27018H85.6756V22.9723ZM86.4255 9.27018H89.013V5.58135H91.3924V9.27018H94.1153L94.7838 11.2785H91.3924V17.8336C91.3924 18.7288 91.3698 19.3924 91.3256 19.8233C91.2815 20.2542 91.2599 20.5134 91.2599 20.6007C91.2599 20.7244 91.2942 20.8206 91.3649 20.8903C91.4356 20.961 91.5318 20.9953 91.6564 20.9953C91.7438 20.9953 92.0039 20.9737 92.4358 20.9296C92.8667 20.8854 93.5323 20.8638 94.4314 20.8638H95.3561V22.9713H93.5067C91.9912 22.9713 90.8633 22.6032 90.1242 21.864C89.385 21.1259 89.014 20.0029 89.014 18.4913V11.2775H86.4275V9.2692H86.4255V9.27018ZM94.8319 9.27018H97.2564L101.194 20.7656C101.248 20.907 101.331 21.0925 101.601 21.0925C101.871 21.0925 101.954 20.906 102.007 20.7656L105.945 9.27018H108.206V9.7973L103.28 24.5791C102.857 25.8444 102.264 26.7269 101.498 27.2275C100.731 27.7281 99.841 27.9784 98.3597 27.9784H95.8233V25.8709H97.7531C98.3696 25.8709 98.8712 25.8925 99.2589 25.9367C99.6456 25.9809 99.893 26.0025 99.999 26.0025C100.298 26.0025 100.501 25.8709 100.608 25.6079L101.348 23.6054C101.436 23.3953 101.444 23.2373 101.374 23.1303C101.339 23.0596 101.296 23.0155 101.243 22.9988C101.19 22.9811 101.11 22.9723 101.005 22.9723H99.3934L94.8339 9.27117H94.8319V9.27018ZM13.2005 20.109C12.5752 21.2064 11.7644 22.028 10.7691 22.5718C9.77374 23.1156 8.70282 23.3885 7.55828 23.3885C5.30356 23.3885 3.7173 22.4933 2.80147 20.7009C2.7308 20.5615 2.64245 20.4908 2.53742 20.4908C2.43239 20.4908 2.37841 20.5438 2.37841 20.6488V28H0V9.29374H2.37841V11.6388C2.37841 11.7438 2.43141 11.7968 2.53742 11.7968C2.64343 11.7968 2.7308 11.7261 2.80147 11.5867C3.71632 9.79436 5.30356 8.89914 7.55828 8.89914C8.70282 8.89914 9.77374 9.17202 10.7691 9.71583C11.7644 10.2596 12.5742 11.0812 13.2005 12.1787C13.8258 13.2761 14.1389 14.5993 14.1389 16.1443C14.1389 17.6893 13.8258 19.0115 13.2005 20.109ZM10.452 12.3622C9.57938 11.4572 8.42994 11.0047 7.00368 11.0047C5.57743 11.0047 4.427 11.4572 3.55534 12.3622C2.6827 13.2672 2.3627 14.5276 2.3627 16.1433C2.3627 17.759 2.6827 19.0204 3.55534 19.9244C4.42798 20.8294 5.57743 21.282 7.00368 21.282C8.42994 21.282 9.58037 20.8304 10.452 19.9244C11.3247 19.0194 11.7605 17.759 11.7605 16.1433C11.7605 14.5276 11.3247 13.2672 10.452 12.3622Z" fill="#15182C"/>
</svg>
