<svg width="136" height="32" viewBox="0 0 136 32" fill="none" xmlns="http://www.w3.org/2000/svg">
<path d="M1.61039e-06 19.674V13.5396C-0.000210577 13.0953 0.105053 12.6573 0.307134 12.2616C0.509215 11.8659 0.80234 11.5239 1.1624 11.2636L9.0592 5.5636C9.56636 5.19734 10.176 5.00014 10.8016 5H10.8264C11.4756 5 12.1036 5.2032 12.6268 5.5808L20.5004 11.2636C20.8605 11.5239 21.1536 11.8659 21.3557 12.2616C21.5578 12.6573 21.663 13.0953 21.6628 13.5396V18.4604C21.663 18.9047 21.5577 19.3427 21.3556 19.7383C21.1534 20.1339 20.8602 20.4759 20.5 20.736L12.6108 26.4248C12.0927 26.7987 11.4701 26.9999 10.8312 27C10.1902 27 9.56541 26.7985 9.0452 26.424C8.0128 25.6804 6.3524 24.482 6.3524 24.482V16.9108C6.3524 16.8112 6.4644 16.7536 6.5452 16.8116L10.7604 19.8536C10.8028 19.8844 10.86 19.8844 10.9024 19.8536L16.1044 16.0992C16.1201 16.0879 16.1329 16.0729 16.1417 16.0557C16.1505 16.0385 16.1551 16.0194 16.1551 16C16.1551 15.9806 16.1505 15.9615 16.1417 15.9443C16.1329 15.9271 16.1201 15.9121 16.1044 15.9008L10.9024 12.1464C10.8817 12.1315 10.8569 12.1234 10.8314 12.1234C10.8059 12.1234 10.7811 12.1315 10.7604 12.1464L0.192802 19.7732C0.174602 19.7863 0.153119 19.7942 0.130733 19.7959C0.108346 19.7976 0.085929 19.793 0.0659662 19.7828C0.0460034 19.7725 0.0292738 19.7569 0.0176308 19.7377C0.00598782 19.7185 -0.000113911 19.6965 1.61039e-06 19.674ZM48.108 25.8V11.8928H51.2924V14.1976H51.3316C51.5848 13.3988 51.9824 12.7928 52.524 12.38C53.0744 11.9676 53.7952 11.7612 54.686 11.7612C54.9132 11.7612 55.114 11.7652 55.2888 11.7744C55.4724 11.7832 55.6296 11.7964 55.7608 11.814V14.764C55.5561 14.7364 55.3507 14.7144 55.1448 14.698C54.831 14.6709 54.5162 14.6577 54.2012 14.6584C53.686 14.6584 53.214 14.7812 52.786 15.0272C52.3668 15.2644 52.0304 15.6244 51.7772 16.1072C51.5324 16.59 51.41 17.196 51.41 17.9244V25.8H48.108ZM62.8964 26.116C61.5424 26.116 60.35 25.8132 59.3192 25.2072C58.2968 24.5928 57.4976 23.7412 56.9212 22.6524C56.3532 21.5636 56.0692 20.2996 56.0692 18.8596C56.0692 17.4196 56.3532 16.1556 56.9212 15.0668C57.4976 13.9692 58.2968 13.1132 59.3192 12.4988C60.35 11.884 61.5424 11.5768 62.8964 11.5768C64.2592 11.5768 65.4516 11.884 66.4736 12.4988C67.496 13.1132 68.2908 13.9692 68.8588 15.0668C69.4352 16.1556 69.7236 17.4196 69.7236 18.8596C69.7236 20.2996 69.4352 21.5636 68.8588 22.6524C68.2908 23.7412 67.496 24.5928 66.4736 25.2072C65.4516 25.8132 64.2592 26.116 62.8964 26.116ZM62.8964 23.3372C63.604 23.3372 64.2156 23.1572 64.7308 22.7972C65.2552 22.4372 65.6568 21.9236 65.9364 21.2564C66.2248 20.5804 66.3688 19.7816 66.3688 18.8596C66.3688 17.9288 66.2248 17.13 65.9364 16.4628C65.6568 15.7868 65.2552 15.2688 64.7308 14.9088C64.2156 14.54 63.604 14.3556 62.8964 14.3556C62.1888 14.3556 61.5728 14.5396 61.0488 14.9088C60.5248 15.2688 60.1184 15.7868 59.83 16.4628C59.5504 17.13 59.4108 17.9288 59.4108 18.8596C59.4108 19.7904 59.5504 20.5892 59.83 21.2564C60.1184 21.9236 60.5248 22.4372 61.0488 22.7972C61.5728 23.1572 62.1888 23.3372 62.8964 23.3372ZM85.7116 26.116C84.3576 26.116 83.1652 25.8132 82.1344 25.2072C81.1124 24.5928 80.3128 23.7412 79.7364 22.6524C79.1684 21.5636 78.8848 20.2996 78.8848 18.8596C78.8848 17.4196 79.1684 16.1556 79.7364 15.0668C80.3128 13.9692 81.1124 13.1132 82.1344 12.4988C83.1652 11.884 84.3576 11.5768 85.7116 11.5768C87.0744 11.5768 88.2668 11.884 89.2892 12.4988C90.3112 13.1132 91.106 13.9692 91.674 15.0668C92.2504 16.1556 92.5388 17.4196 92.5388 18.8596C92.5388 20.2996 92.2504 21.5636 91.674 22.6524C91.106 23.7412 90.3112 24.5928 89.2892 25.2072C88.2668 25.8132 87.0744 26.116 85.7116 26.116ZM85.7116 23.3372C86.4192 23.3372 87.0308 23.1572 87.5464 22.7972C88.0704 22.4372 88.4724 21.9236 88.752 21.2564C89.04 20.5804 89.1844 19.7816 89.1844 18.8596C89.1844 17.9288 89.04 17.13 88.752 16.4628C88.4724 15.7868 88.0704 15.2688 87.5464 14.9088C87.0308 14.54 86.4192 14.3556 85.7116 14.3556C85.004 14.3556 84.3884 14.5396 83.864 14.9088C83.34 15.2688 82.9336 15.7868 82.6456 16.4628C82.366 17.13 82.226 17.9288 82.226 18.8596C82.226 19.7904 82.366 20.5892 82.6456 21.2564C82.9336 21.9236 83.34 22.4372 83.864 22.7972C84.3884 23.1572 85.004 23.3372 85.7116 23.3372ZM128.531 26.0764C127.334 26.0764 126.281 25.7736 125.373 25.168C124.473 24.562 123.774 23.7148 123.276 22.626C122.787 21.5376 122.542 20.2732 122.542 18.8332C122.542 17.4108 122.791 16.1556 123.289 15.0668C123.787 13.978 124.486 13.1308 125.386 12.5248C126.286 11.9192 127.325 11.6164 128.505 11.6164C129.107 11.6164 129.666 11.6996 130.182 11.8664C130.706 12.0244 131.178 12.2704 131.597 12.604C132.016 12.9376 132.375 13.3592 132.672 13.868H132.698V6.1776H136V25.8H132.75V23.68H132.724C132.436 24.2152 132.078 24.6632 131.65 25.0228C131.228 25.3751 130.744 25.6435 130.221 25.8132C129.697 25.9888 129.134 26.0764 128.531 26.0764ZM129.304 23.2976C130.029 23.2976 130.658 23.1176 131.191 22.7576C131.724 22.3892 132.139 21.8712 132.436 21.204C132.733 20.528 132.881 19.7376 132.881 18.8332C132.881 17.9292 132.733 17.1432 132.436 16.476C132.139 15.8088 131.724 15.2908 131.191 14.922C130.658 14.5532 130.029 14.3688 129.304 14.3688C128.631 14.3688 128.037 14.5444 127.522 14.8956C127.006 15.238 126.604 15.7428 126.316 16.41C126.028 17.0684 125.884 17.8764 125.884 18.8332C125.884 19.7904 126.028 20.6024 126.316 21.2696C126.604 21.9368 127.006 22.4416 127.522 22.784C128.037 23.1264 128.631 23.2976 129.304 23.2976Z" fill="#15182C"/>
<path fill-rule="evenodd" clip-rule="evenodd" d="M32.4548 25.8001V6.17728H39.9108C41.3436 6.17728 42.5796 6.43208 43.6192 6.94128C44.6676 7.45048 45.4712 8.17488 46.0304 9.11408C46.598 10.0537 46.882 11.1641 46.882 12.4461C46.882 13.7369 46.5936 14.8517 46.0172 15.7913C45.4404 16.7305 44.6236 17.4593 43.5668 17.9773C42.5184 18.4865 41.278 18.7413 39.8452 18.7413H35.914V25.8001H32.4548ZM41.7192 15.3697C41.16 15.6333 40.4916 15.7649 39.714 15.7649H35.914V9.15368H39.714C40.4916 9.15368 41.16 9.28968 41.7192 9.56168C42.2868 9.82568 42.7192 10.2029 43.0164 10.6945C43.322 11.1773 43.4748 11.7613 43.4748 12.4461C43.4748 13.1309 43.322 13.7237 43.0164 14.2241C42.7192 14.7157 42.2868 15.0977 41.7192 15.3697Z" fill="#15182C"/>
<path d="M78.5893 11.8929V14.5665H75.7717V25.8001H72.4565V14.5665H69.9669V11.8929H72.4565V9.86488C72.4565 9.06568 72.6181 8.39408 72.9413 7.84968C73.2645 7.29688 73.7365 6.87968 74.3565 6.59888C74.9857 6.31768 75.7545 6.17728 76.6629 6.17728H78.5893V8.85088H77.3181C76.7589 8.85088 76.3613 8.96928 76.1257 9.20648C75.8897 9.44328 75.7717 9.84728 75.7717 10.4181V11.8929H78.5893ZM98.9541 26.0765C97.9929 26.0765 97.1413 25.8705 96.3989 25.4577C95.6561 25.0361 95.0753 24.4173 94.6561 23.6009C94.2365 22.7753 94.0269 21.7701 94.0269 20.5849V11.8929H97.3293V20.0581C97.3293 21.0765 97.5737 21.8493 98.0629 22.3761C98.5609 22.9029 99.2465 23.1661 100.12 23.1661C100.706 23.1661 101.225 23.0477 101.68 22.8105C102.134 22.5737 102.492 22.2049 102.754 21.7045C103.016 21.1949 103.147 20.5453 103.147 19.7553V11.8929H106.463V25.8001H103.213V23.6365C102.861 24.2257 102.447 24.7141 101.968 25.1021C101.164 25.7517 100.16 26.0765 98.9541 26.0765ZM111.908 17.9377V25.8001H108.606V11.8929H111.856V14.0465C112.204 13.4597 112.616 12.9721 113.087 12.5909C113.9 11.9413 114.904 11.6165 116.101 11.6165C117.071 11.6165 117.927 11.8269 118.67 12.2485C119.412 12.6613 119.993 13.2757 120.413 14.0925C120.832 14.9085 121.041 15.9141 121.041 17.1085V25.8001H117.726V17.6349C117.726 16.6165 117.481 15.8437 116.992 15.3169C116.512 14.7901 115.826 14.5269 114.935 14.5269C114.359 14.5269 113.843 14.6453 113.389 14.8825C112.935 15.1197 112.572 15.4881 112.301 15.9885C112.039 16.4893 111.908 17.1389 111.908 17.9377Z" fill="#15182C"/>
</svg>
