<svg width="54" height="32" viewBox="0 0 54 32" fill="none" xmlns="http://www.w3.org/2000/svg">
<path d="M8.98346 16.1279C11.9149 16.1279 12.8233 13.7627 12.8233 10.4917C12.8233 7.22068 11.9149 4.85549 8.10447 4.85549H3.62953V16.1237H8.98346V16.1279ZM3.62534 16.9833V27.4254H0V4H8.10447C13.9673 4 16.4529 5.43836 16.4529 10.5084C16.4529 14.182 13.9504 15.8511 11.4691 16.5095L17.1174 27.4254H13.0126L7.95307 16.9833H3.62534Z" fill="white"/>
<path d="M34.954 17.1051V27.4255H31.3413V16.5096C31.3413 13.6202 30.9039 11.6743 27.737 11.6743C24.5701 11.6743 22.4125 14.7231 22.4125 16.9918V27.4255H18.804V4.00009H22.4125V14.4798C23.4681 12.2237 25.8402 10.4247 28.8978 10.4247C33.44 10.4247 34.9498 13.075 34.9498 17.1051" fill="white"/>
<path d="M44.7786 11.1292C40.7327 11.1292 40.2028 13.7334 40.2028 19.2144C40.2028 24.6955 40.7327 27.2997 44.7786 27.2997C48.8245 27.2997 49.3545 24.6955 49.3545 19.2144C49.3545 13.7334 48.8245 11.1292 44.7786 11.1292ZM44.7786 28C40.2575 28 36.3545 24.9261 36.3545 19.2144C36.3545 13.5028 40.2575 10.4289 44.7786 10.4289C49.2998 10.4289 53.2027 13.5028 53.2027 19.2144C53.2027 24.9261 49.2998 28 44.7786 28Z" fill="white"/>
</svg>
