<svg width="127" height="32" viewBox="0 0 127 32" fill="none" xmlns="http://www.w3.org/2000/svg">
<path d="M2.87442 11.9953C2.87442 10.014 1.86977 8.39535 0 7H4.35349C5.91628 8.2 6.8093 10.0419 6.8093 11.9953C6.8093 13.9488 5.91628 15.7907 4.35349 16.9907C5.77674 17.5767 6.55814 19.0279 6.55814 21.093V25H2.62325V21.0651C2.62325 19.1116 1.67442 17.7163 0 16.9628C1.86977 15.5953 2.87442 13.9767 2.87442 11.9953ZM11.414 11.9953C11.414 10.014 10.4093 8.39535 8.53954 7H12.893C14.4558 8.2 15.3488 10.0419 15.3488 11.9953C15.3488 13.9488 14.4558 15.7907 12.893 16.9907C14.3163 17.5767 15.0977 19.0279 15.0977 21.093V25H11.1628V21.0651C11.1628 19.1116 10.214 17.7163 8.53954 16.9628C10.4093 15.5953 11.414 13.9767 11.414 11.9953ZM19.9535 11.9953C19.9535 10.014 18.9488 8.39535 17.0791 7H21.4326C22.9954 8.2 23.8884 10.0419 23.8884 11.9953C23.8884 13.9488 22.9674 15.7907 21.4326 16.9907C22.8558 17.5767 23.6372 19.0279 23.6372 21.093V25H19.7023V21.0651C19.7023 19.1116 18.7535 17.7163 17.0791 16.9628C18.9488 15.5953 19.9535 13.9767 19.9535 11.9953ZM35.9163 21.7349H32.9302V10.293H40.2698C43.814 10.293 45.5442 11.6047 45.5442 13.7535C45.5442 15.2047 44.6791 16.293 43.0884 16.8512C44.7349 17.1023 45.4605 17.9674 45.4605 19.5023V21.7349H42.4465V19.6419C42.4465 18.3302 41.7767 17.8 40.0744 17.8H35.9163V21.7349ZM40.1023 11.9395H35.9163V16.1256H40.0744C41.5814 16.1256 42.5302 15.2884 42.5302 13.9767C42.5302 12.693 41.6372 11.9395 40.1023 11.9395ZM50.7349 10.2651H47.7488V21.707H50.7349V10.2651ZM59.9163 17.9953H56.2605V21.7349H53.2744V10.293H59.9721C63.4884 10.293 65.3581 11.7721 65.3581 14.1163C65.3581 16.5442 63.4605 17.9953 59.9163 17.9953ZM59.8326 11.9395H56.2605V16.3209H59.8047C61.3395 16.3209 62.3163 15.5395 62.3163 14.1163C62.3163 12.7209 61.3395 11.9395 59.8326 11.9395ZM73.7861 17.9953H70.1302V21.7349H67.1442V10.293H73.8419C77.386 10.293 79.2279 11.7721 79.2279 14.1163C79.2279 16.5442 77.3302 17.9953 73.7861 17.9953ZM73.7023 11.9395H70.1302V16.3209H73.6744C75.2093 16.3209 76.186 15.5395 76.186 14.1163C76.186 12.7209 75.2093 11.9395 73.7023 11.9395ZM84 10.2651V20.0047H91.4512V21.707H81.014V10.2651H84ZM96.3349 10.2651H93.3488V21.707H96.3349V10.2651ZM100.828 14.0884V21.707H98.8465V10.2651H101.079L109.228 17.8837V10.2651H111.209V21.707H108.977L100.828 14.0884ZM120.977 11.6047C118.13 11.6047 116.288 13.3907 116.288 16.0977C116.288 18.7488 118.074 20.3674 120.837 20.3674H121.033C121.981 20.3674 123.014 20.1721 123.991 19.8651V16.7674H119.163V15.1209H126.893V20.5349C125.274 21.3721 122.847 22.014 120.865 22.014H120.614C116.065 22.014 113.163 19.614 113.163 16.1535C113.163 12.7209 116.177 9.98605 120.781 9.98605H121.06C122.986 9.98605 125.191 10.6 126.809 11.5488L125.944 12.9442C124.493 12.1349 122.735 11.6326 121.172 11.6326H120.977V11.6047Z" fill="#15182C"/>
</svg>
