<svg width="61" height="32" viewBox="0 0 61 32" fill="none" xmlns="http://www.w3.org/2000/svg">
<path fill-rule="evenodd" clip-rule="evenodd" d="M60.0801 16.4172C60.0801 12.1449 58.0107 8.77371 54.0554 8.77371C50.0835 8.77371 47.6803 12.1449 47.6803 16.3839C47.6803 21.4072 50.5174 23.9439 54.5895 23.9439C56.5755 23.9439 58.0775 23.4933 59.2123 22.8591V19.5214C58.0775 20.0888 56.7757 20.4393 55.1235 20.4393C53.5047 20.4393 52.0694 19.8719 51.8859 17.9026H60.0468C60.0468 17.6856 60.0801 16.8178 60.0801 16.4172ZM51.8358 14.8318C51.8358 12.946 52.9873 12.1616 54.0387 12.1616C55.0568 12.1616 56.1415 12.946 56.1415 14.8318H51.8358Z" fill="white"/>
<path fill-rule="evenodd" clip-rule="evenodd" d="M41.2383 8.77371C39.6028 8.77371 38.5514 9.5414 37.9673 10.0754L37.7504 9.04073H34.0788V28.5L38.251 27.6155L38.2677 22.8925C38.8685 23.3264 39.753 23.9439 41.2216 23.9439C44.209 23.9439 46.9293 21.5407 46.9293 16.2503C46.9126 11.4106 44.1589 8.77371 41.2383 8.77371ZM40.237 20.2724C39.2524 20.2724 38.6682 19.9219 38.2677 19.488L38.251 13.2964C38.6849 12.8124 39.2857 12.4787 40.237 12.4787C41.7557 12.4787 42.8071 14.1809 42.8071 16.3672C42.8071 18.6035 41.7724 20.2724 40.237 20.2724Z" fill="white"/>
<path fill-rule="evenodd" clip-rule="evenodd" d="M28.3378 7.78905L32.5267 6.88784V3.5L28.3378 4.38451V7.78905Z" fill="white"/>
<path d="M32.5267 9.05742H28.3378V23.6602H32.5267V9.05742Z" fill="white"/>
<path fill-rule="evenodd" clip-rule="evenodd" d="M23.8485 10.2924L23.5815 9.0574H19.9767V23.6602H24.1489V13.7637C25.1335 12.4786 26.8024 12.7123 27.3198 12.8959V9.0574C26.7857 8.85714 24.8331 8.48998 23.8485 10.2924Z" fill="white"/>
<path fill-rule="evenodd" clip-rule="evenodd" d="M15.504 5.43593L11.4319 6.30375L11.4152 19.6716C11.4152 22.1415 13.2677 23.9606 15.7377 23.9606C17.1062 23.9606 18.1075 23.7103 18.6582 23.4099V20.022C18.1242 20.239 15.4873 21.0067 15.4873 18.5367V12.6122H18.6582V9.05744H15.4873L15.504 5.43593Z" fill="white"/>
<path fill-rule="evenodd" clip-rule="evenodd" d="M4.2223 13.2964C4.2223 12.6455 4.75634 12.3952 5.64086 12.3952C6.90922 12.3952 8.51135 12.779 9.77971 13.4633V9.5414C8.39453 8.99066 7.02604 8.77371 5.64086 8.77371C2.25301 8.77371 0 10.5427 0 13.4967C0 18.1028 6.34179 17.3685 6.34179 19.3545C6.34179 20.1222 5.67424 20.3725 4.73966 20.3725C3.35447 20.3725 1.58545 19.8051 0.183578 19.0374V23.0093C1.73565 23.6769 3.30441 23.9606 4.73966 23.9606C8.21095 23.9606 10.5975 22.2417 10.5975 19.2544C10.5808 14.2811 4.2223 15.1656 4.2223 13.2964Z" fill="white"/>
</svg>
